<svg width="222" height="187" viewBox="0 0 222 187" fill="none" xmlns="http://www.w3.org/2000/svg">
<path d="M73.5821 120.143L72.957 121.225L167.068 175.603L167.693 174.521L73.5821 120.143Z" fill="#B1DBC6"/>
<path d="M164.592 106.047L34.6523 181.279L35.2784 182.361L165.218 107.128L164.592 106.047Z" fill="#B1DBC6"/>
<path style="mix-blend-mode:multiply" d="M165.749 137.874L54.3906 137.918L101.911 108.552L174.502 108.508L165.749 137.874Z" fill="url(#paint0_linear)"/>
<path d="M49.3945 32.8152V134.058C49.3945 135.233 49.8158 136.043 50.4923 136.406L51.8774 137.195L53.2375 137.971L53.5356 135.868L53.5052 135.827L98.2178 110.017C100.197 108.868 101.804 106.09 101.804 103.791V3.7333L102.809 3.06752L103.457 1.78237L102.159 1.04519L100.799 0.270527C100.769 0.248773 100.738 0.229089 100.706 0.211621L100.67 0.193771C100.022 -0.127517 99.1638 -0.063257 98.2178 0.491857L52.9822 26.5947C51.001 27.7389 49.3945 30.5252 49.3945 32.8152Z" fill="url(#paint1_linear)"/>
<path d="M51.5984 34.4089V135.652C51.5885 136.181 51.6819 136.707 51.8733 137.2L53.2334 137.976L53.5315 135.873L53.5011 135.832L98.2137 110.022C100.193 108.873 101.8 106.095 101.8 103.796V3.73303L102.805 3.06725L103.452 1.7821L102.155 1.04492C101.643 1.12652 101.152 1.30525 100.707 1.57147L55.477 27.6851C53.3048 28.9416 51.5984 31.8975 51.5984 34.4089Z" fill="white"/>
<path d="M52.1797 34.4125V135.652C52.1797 136.795 52.5813 137.6 53.2292 137.973C53.8772 138.346 54.775 138.297 55.7674 137.724L100.998 111.611C102.977 110.469 104.584 107.684 104.584 105.392V4.14719C104.584 2.95486 104.152 2.13378 103.448 1.78037C102.809 1.45908 101.945 1.52869 100.998 2.07488L55.7674 28.1885C53.7861 29.3344 52.1797 32.1171 52.1797 34.4125Z" fill="url(#paint2_linear)"/>
<path d="M54.6523 38.356V124.715C54.6523 126.321 55.7822 126.982 57.1816 126.175L99.3774 101.816C100.775 101.009 101.908 99.0473 101.908 97.4355V11.2946C101.908 9.6882 100.773 9.0242 99.3739 9.82564L57.1852 33.9847C55.7858 34.7861 54.6523 36.7442 54.6523 38.356Z" fill="url(#paint3_linear)"/>
<path d="M74.9844 121.407C74.9844 123.071 76.3302 123.639 77.992 122.68L85.7725 118.189C87.4343 117.229 88.7819 115.103 88.7819 113.441C88.7819 111.779 87.4343 111.21 85.7725 112.169L77.9956 116.663C76.3338 117.623 74.9879 119.747 74.9879 121.409L74.9844 121.407Z" fill="#E7F2F0"/>
<path d="M64.2502 93.9367C64.5298 93.9362 64.7979 93.8249 64.9956 93.6272C65.1933 93.4294 65.3046 93.1614 65.3051 92.8818V66.5236C65.3051 66.2439 65.194 65.9756 64.9961 65.7777C64.7983 65.5799 64.53 65.4688 64.2502 65.4688C63.9704 65.4688 63.7021 65.5799 63.5043 65.7777C63.3064 65.9756 63.1953 66.2439 63.1953 66.5236V92.8818C63.1958 93.1614 63.3071 93.4294 63.5048 93.6272C63.7025 93.8249 63.9706 93.9362 64.2502 93.9367Z" fill="#D2E9E6"/>
<path d="M64.2523 64.2674C64.532 64.2669 64.8 64.1556 64.9977 63.9579C65.1955 63.7602 65.3068 63.4921 65.3072 63.2125C65.3072 52.8867 71.4974 40.9133 79.1048 36.5206L80.622 35.646C83.6885 33.8735 86.6175 33.6147 88.8683 34.9159C91.7242 36.5652 93.3664 40.5296 93.3664 45.7933C93.3664 46.0731 93.4775 46.3414 93.6754 46.5392C93.8732 46.7371 94.1415 46.8482 94.4213 46.8482C94.7011 46.8482 94.9694 46.7371 95.1672 46.5392C95.365 46.3414 95.4762 46.0731 95.4762 45.7933C95.4762 39.7567 93.4521 35.1248 89.9233 33.0882C86.9924 31.3961 83.319 31.6602 79.5706 33.8182L78.0534 34.6928C69.8624 39.4211 63.1992 52.2155 63.1992 63.2125C63.1997 63.4918 63.3107 63.7596 63.5081 63.9573C63.7054 64.1549 63.973 64.2664 64.2523 64.2674Z" fill="#D2E9E6"/>
<path d="M94.4182 76.5176C94.6978 76.5171 94.9658 76.4058 95.1636 76.2081C95.3613 76.0104 95.4726 75.7423 95.4731 75.4627V50.2951C95.4731 50.0153 95.3619 49.747 95.1641 49.5492C94.9663 49.3514 94.6979 49.2402 94.4182 49.2402C94.1384 49.2402 93.8701 49.3514 93.6722 49.5492C93.4744 49.747 93.3633 50.0153 93.3633 50.2951V75.4627C93.3638 75.7423 93.475 76.0104 93.6728 76.2081C93.8705 76.4058 94.1385 76.5171 94.4182 76.5176Z" fill="#D2E9E6"/>
<path d="M74.4841 100.955C75.9513 100.955 77.5184 100.496 79.1017 99.5822L80.6189 98.7058C80.8559 98.5635 81.0277 98.3338 81.0971 98.0661C81.1665 97.7985 81.128 97.5143 80.99 97.2747C80.8519 97.0351 80.6254 96.8593 80.359 96.7851C80.0926 96.7109 79.8078 96.7443 79.5658 96.878L78.0486 97.7544C75.8799 99.0038 73.9057 99.1823 72.3368 98.2899C70.3501 97.1439 69.2114 94.3505 69.2114 90.6272C69.2114 90.3474 69.1002 90.0791 68.9024 89.8812C68.7046 89.6834 68.4362 89.5723 68.1565 89.5723C67.8767 89.5723 67.6084 89.6834 67.4105 89.8812C67.2127 90.0791 67.1016 90.3474 67.1016 90.6272C67.1016 95.1234 68.6259 98.5826 71.2819 100.118C72.2562 100.676 73.3613 100.964 74.4841 100.955Z" fill="#D2E9E6"/>
<path d="M68.1586 86.2881C68.2973 86.2881 68.4346 86.2607 68.5627 86.2076C68.6908 86.1545 68.8072 86.0766 68.9051 85.9785C69.0031 85.8803 69.0808 85.7638 69.1337 85.6356C69.1866 85.5075 69.2137 85.3701 69.2135 85.2314V60.9563C69.2135 53.5399 73.649 44.9437 79.102 41.795L80.6192 40.9186C80.7418 40.8509 80.8498 40.7594 80.9366 40.6494C81.0235 40.5395 81.0876 40.4133 81.1252 40.2784C81.1628 40.1434 81.1732 40.0023 81.1556 39.8632C81.1381 39.7242 81.093 39.5901 81.023 39.4687C80.9531 39.3473 80.8597 39.241 80.7482 39.1561C80.6367 39.0712 80.5094 39.0094 80.3738 38.9742C80.2382 38.939 80.0969 38.9312 79.9582 38.9513C79.8195 38.9713 79.6862 39.0187 79.5661 39.0909L78.0489 39.9673C72.014 43.4515 67.1055 52.867 67.1055 60.9563V85.2314C67.1052 85.3699 67.1323 85.5072 67.1851 85.6352C67.2379 85.7633 67.3154 85.8797 67.4132 85.9778C67.511 86.076 67.6271 86.1539 67.755 86.2071C67.8829 86.2603 68.0201 86.2878 68.1586 86.2881Z" fill="#D2E9E6"/>
<path d="M90.5118 86.6864C90.7912 86.686 91.0591 86.5746 91.2566 86.3768C91.454 86.1791 91.5649 85.911 91.5649 85.6316V48.0516C91.5649 44.3282 90.5189 41.2867 88.6215 39.4839C87.9847 38.8718 87.2271 38.3993 86.3973 38.0965C85.5675 37.7938 84.6836 37.6675 83.8022 37.7257C83.5229 37.7409 83.2611 37.8664 83.0744 38.0746C82.8876 38.2828 82.7911 38.5567 82.8062 38.8359C82.8119 38.9747 82.8452 39.1109 82.9044 39.2366C82.9635 39.3623 83.0472 39.4748 83.1505 39.5676C83.2538 39.6605 83.3746 39.7317 83.5058 39.7771C83.6371 39.8224 83.7761 39.8411 83.9147 39.8319C84.5114 39.7893 85.1104 39.8726 85.6728 40.0764C86.2353 40.2803 86.7485 40.6002 87.1793 41.0154C88.6537 42.413 89.464 44.9101 89.464 48.048V85.6316C89.4645 85.91 89.5748 86.1769 89.771 86.3745C89.9672 86.572 90.2334 86.6841 90.5118 86.6864Z" fill="#D2E9E6"/>
<path d="M74.3924 94.8056C74.6259 94.8055 74.8527 94.728 75.0374 94.5852C75.2222 94.4423 75.3543 94.2422 75.413 94.0163C75.4718 93.7903 75.454 93.5512 75.3623 93.3365C75.2706 93.1217 75.1103 92.9435 74.9064 92.8296C73.7891 92.2067 73.1215 90.5378 73.1215 88.3673V62.6643C73.1215 62.3845 73.0104 62.1162 72.8125 61.9184C72.6147 61.7205 72.3464 61.6094 72.0666 61.6094C71.7868 61.6094 71.5185 61.7205 71.3207 61.9184C71.1229 62.1162 71.0117 62.3845 71.0117 62.6643V88.3673C71.0117 91.3589 72.0559 93.6561 73.8801 94.6717C74.0365 94.7597 74.2129 94.8059 74.3924 94.8056Z" fill="#D2E9E6"/>
<path d="M78.5752 94.451C78.7633 94.4532 78.9485 94.4038 79.1106 94.3082L80.6278 93.4336C84.5761 91.156 87.6658 85.2443 87.6658 79.9752V50.3078C87.6658 47.3537 86.6413 45.0654 84.8546 44.0355C83.3374 43.1591 81.4632 43.2769 79.5747 44.3657L78.0575 45.2421C74.111 47.5215 71.0195 53.4314 71.0195 58.6988C71.0195 58.9785 71.1307 59.2468 71.3285 59.4447C71.5263 59.6425 71.7947 59.7536 72.0744 59.7536C72.3542 59.7536 72.6225 59.6425 72.8203 59.4447C73.0182 59.2468 73.1293 58.9785 73.1293 58.6988C73.1293 54.2685 75.8692 48.9423 79.1106 47.0699L80.6278 46.1953C81.4828 45.7009 82.7269 45.2421 83.8014 45.8615C84.876 46.4809 85.556 48.1587 85.556 50.3078V79.9752C85.556 84.4089 82.8162 89.7334 79.5747 91.6058L78.0575 92.4822C77.8583 92.5997 77.7032 92.7795 77.6162 92.9938C77.5292 93.2081 77.515 93.4451 77.5759 93.6683C77.6367 93.8914 77.7693 94.0884 77.953 94.2289C78.1368 94.3693 78.3617 94.4455 78.593 94.4456L78.5752 94.451Z" fill="#D2E9E6"/>
<path d="M77.5511 89.4816C78.0992 89.4718 78.6349 89.3172 79.104 89.0336L80.6212 88.159C80.7438 88.0912 80.8517 87.9997 80.9386 87.8898C81.0255 87.7798 81.0896 87.6537 81.1272 87.5187C81.1648 87.3837 81.1751 87.2426 81.1576 87.1036C81.14 86.9646 81.095 86.8304 81.025 86.709C80.9551 86.5876 80.8616 86.4814 80.7501 86.3965C80.6387 86.3116 80.5114 86.2497 80.3758 86.2146C80.2401 86.1794 80.0989 86.1716 79.9602 86.1916C79.8215 86.2116 79.6882 86.2591 79.5681 86.3312L78.0509 87.2076C77.7795 87.3647 77.5422 87.4147 77.4154 87.3415C77.2887 87.2683 77.0317 86.9078 77.0317 86.1117V56.4443C77.0317 54.8985 78.0009 52.9815 79.104 52.3389L80.6212 51.4625C80.8925 51.3072 81.1317 51.2555 81.2566 51.3287C81.3815 51.4018 81.6404 51.7624 81.6404 52.5585V83.2843C81.6516 83.5568 81.7677 83.8145 81.9645 84.0033C82.1612 84.1921 82.4234 84.2976 82.6962 84.2976C82.9689 84.2976 83.231 84.1921 83.4278 84.0033C83.6246 83.8145 83.7407 83.5568 83.7519 83.2843V52.5638C83.7519 51.1484 83.2272 50.0346 82.3133 49.5063C81.5136 49.0457 80.5123 49.0957 79.5663 49.6419L78.0509 50.5165C76.2945 51.5304 74.9219 54.1328 74.9219 56.4443V86.1117C74.9219 87.5271 75.4449 88.6409 76.3605 89.1693C76.7228 89.3767 77.1336 89.4845 77.5511 89.4816Z" fill="#D2E9E6"/>
<path d="M79.3362 82.7359C79.6159 82.7359 79.8842 82.6248 80.0821 82.4269C80.2799 82.2291 80.391 81.9608 80.391 81.681V73.7024C80.391 73.4226 80.2799 73.1543 80.0821 72.9564C79.8842 72.7586 79.6159 72.6475 79.3362 72.6475C79.0564 72.6475 78.7881 72.7586 78.5902 72.9564C78.3924 73.1543 78.2813 73.4226 78.2813 73.7024V81.6774C78.281 81.8162 78.3081 81.9537 78.361 82.082C78.4139 82.2102 78.4915 82.3269 78.5895 82.4252C78.6874 82.5234 78.8038 82.6015 78.9319 82.6548C79.06 82.7081 79.1974 82.7357 79.3362 82.7359Z" fill="#D2E9E6"/>
<path d="M79.3362 71.7251C79.4747 71.7254 79.612 71.6982 79.7401 71.6453C79.8682 71.5924 79.9846 71.5147 80.0826 71.4167C80.1806 71.3187 80.2583 71.2023 80.3112 71.0742C80.3642 70.9461 80.3913 70.8088 80.391 70.6702V56.0998C80.391 55.82 80.2799 55.5517 80.0821 55.3539C79.8842 55.1561 79.6159 55.0449 79.3362 55.0449C79.0564 55.0449 78.7881 55.1561 78.5902 55.3539C78.3924 55.5517 78.2813 55.82 78.2812 56.0998V70.6702C78.2813 70.95 78.3924 71.2183 78.5902 71.4162C78.7881 71.614 79.0564 71.7251 79.3362 71.7251Z" fill="#D2E9E6"/>
<path style="mix-blend-mode:multiply" d="M112.17 172.527H29.8828V186.923H112.17V172.527Z" fill="url(#paint4_linear)"/>
<path d="M60.0545 146.501L59.876 147.484C59.876 147.55 58.6266 154.406 57.1754 161.407C56.3133 165.512 55.5458 168.889 54.8925 171.402C53.7341 175.813 53.1415 176.828 52.6703 177.248C51.9973 177.874 50.3195 178.854 48.2383 179.861C46.8103 180.546 45.2164 181.253 43.5975 181.88C41.6957 182.651 39.7364 183.273 37.7375 183.738C35.335 184.25 33.8464 184.177 32.5737 183.442C31.301 182.706 29.8053 181.059 27.3974 177.766C25.7749 175.55 23.7561 172.573 21.5464 169.153C17.5999 163.045 13.6123 156.412 12.4753 154.047C12.0113 153.085 11.4187 151.388 10.2602 145.644C9.60696 142.37 8.83229 138.122 7.97552 133.01C7.38471 129.481 6.82424 126.02 6.36908 123.152L0.253906 116.915L0.901833 116.558L5.28563 114.086C5.44628 113.952 5.70152 113.931 5.99961 114.059L7.0902 114.531C19.4955 119.823 31.2939 119.35 31.4081 119.35C31.4081 119.35 31.6634 119.336 31.9865 119.323C32.3095 119.311 32.8147 119.598 33.1306 119.982L33.7107 120.676C33.8321 120.817 45.6162 134.904 58.034 143.936L59.1174 144.73C59.7439 145.16 60.1473 145.954 60.0545 146.501Z" fill="#249899"/>
<path d="M55.3059 149.418L55.1275 150.4C55.1275 150.441 53.9012 157.234 52.4268 164.333C51.5451 168.527 50.7776 171.896 50.1314 174.339C49.2211 177.814 48.6553 179.201 48.2305 179.856C46.8025 180.542 45.2086 181.249 43.5896 181.875C41.6879 182.647 39.7285 183.268 37.7297 183.733C35.3272 184.246 33.8386 184.172 32.5659 183.437C31.2932 182.702 29.7975 181.054 27.3896 177.761C25.7671 175.546 23.7483 172.569 21.5386 169.149C17.5921 163.041 13.6045 156.408 12.4675 154.043C12.0035 153.081 11.4109 151.383 10.2524 145.639C9.59915 142.366 8.82449 138.118 7.96772 133.005C7.37691 129.477 6.81644 126.016 6.36128 123.147L0.246094 116.911L0.894026 116.554C0.948093 116.568 1.00116 116.586 1.05288 116.607L2.14526 117.073C12.5978 121.535 22.6506 121.88 25.4851 121.88C26.0116 121.88 26.3008 121.867 26.3222 121.867L26.8934 121.839C27.4181 121.839 27.9911 122.237 28.3213 122.626L28.8996 123.313C30.1598 124.814 41.3942 137.95 53.164 146.517L54.2475 147.313C54.9704 147.82 55.4255 148.75 55.3059 149.418Z" fill="#269B9B"/>
<path d="M54.9695 149.357L54.791 150.344C54.7803 150.411 53.5415 157.269 52.0886 164.266C51.2265 168.371 50.4607 171.745 49.8021 174.262C48.6437 178.676 48.0564 179.688 47.5834 180.107C46.4518 181.162 42.4696 183.195 38.5213 184.748C36.3044 185.616 34.2857 186.258 32.6614 186.603C30.2571 187.119 28.7667 187.04 27.4958 186.307C26.2249 185.573 24.7273 183.925 22.3195 180.632C20.6988 178.414 18.6729 175.438 16.4667 172.018C12.5184 165.912 8.53443 159.277 7.39386 156.912C6.92799 155.95 6.33718 154.256 5.18411 148.507C4.52725 145.237 3.75617 140.985 2.89583 135.875C1.44111 127.202 0.204146 118.918 0.193436 118.836C0.193436 118.836 0.114899 118.301 0.0149425 117.647C-0.0850137 116.994 0.327305 116.666 0.928828 116.923L2.01942 117.388C14.4283 122.686 26.2231 122.208 26.3391 122.208L26.9139 122.179C27.2316 122.165 27.7475 122.461 28.0652 122.843L28.6381 123.536C28.7613 123.677 40.549 137.763 52.9632 146.797L54.0502 147.59C54.666 148.018 55.073 148.812 54.9695 149.357Z" fill="#1C8E92"/>
<path d="M50.2235 150.349C49.8665 152.345 48.8545 157.766 47.6925 163.344C46.8286 167.449 46.0771 170.749 45.4595 173.113C44.8419 175.476 44.4653 176.531 44.2761 176.979C43.2676 177.655 40.4224 179.16 36.8883 180.549C35.4832 181.106 34.0476 181.583 32.5884 181.977C32.2921 182.053 32.0065 182.121 31.7369 182.178C31.1841 182.313 30.6189 182.392 30.0502 182.412C29.9521 182.417 29.8538 182.409 29.7575 182.391C29.4701 182.225 28.5276 181.464 25.9716 177.961C24.3652 175.772 22.4017 172.87 20.2598 169.559C16.001 162.978 12.3758 156.847 11.4565 154.942C11.0174 154.032 10.4141 151.638 9.60377 147.604C8.95941 144.391 8.19903 140.19 7.34226 135.11C6.61936 130.797 5.95179 126.592 5.46094 123.454C5.93394 123.608 6.4016 123.75 6.8639 123.886C15.4976 126.453 22.9283 126.71 25.4451 126.713C27.4692 129.078 38.55 141.83 50.2235 150.349Z" fill="#117F80"/>
<path d="M50.2211 150.35C49.8641 152.345 48.8521 157.766 47.6901 163.344C46.8262 167.449 46.0747 170.75 45.4571 173.113C44.8395 175.476 44.4629 176.531 44.2737 176.979C43.2652 177.656 40.42 179.16 36.8859 180.549C35.4808 181.106 34.0452 181.583 32.586 181.977C32.1743 182.061 31.7563 182.109 31.3365 182.121C31.2378 182.126 31.1388 182.118 31.042 182.098C30.7546 181.932 29.814 181.172 27.2579 177.668C25.6515 175.48 23.6881 172.577 21.5461 169.268C17.2873 162.687 13.6639 156.554 12.7446 154.65C12.3073 153.745 11.7005 151.346 10.8937 147.312C10.2511 144.099 9.48535 139.901 8.63037 134.817C7.95923 130.822 7.33807 126.93 6.86328 123.881C15.497 126.448 22.9277 126.705 25.4444 126.708C27.4668 129.079 38.5476 141.83 50.2211 150.35Z" fill="url(#paint5_linear)"/>
<path d="M43.5805 155.116C43.5805 155.667 43.3841 156.104 43.0146 156.319L42.9932 156.335L42.9611 156.354L41.7348 157.068L40.9941 157.491L40.4015 156.806L25.5866 159.055C25.0997 159.093 24.6141 158.967 24.2068 158.698C23.5124 158.278 22.93 157.696 22.5093 157.002L21.3777 155.176L16.2353 146.866C16.0806 146.611 15.9451 146.345 15.8301 146.07L14.2344 144.763L14.9216 144.36L16.1068 143.667C16.1264 143.667 16.1407 143.647 16.1603 143.638L16.1817 143.626C16.2178 143.605 16.2554 143.587 16.2942 143.572C17.2241 143.215 18.7199 144.097 19.6213 145.552L24.4835 153.39L39.85 151.053C40.9013 150.898 42.3756 151.976 43.1378 153.47C43.4098 153.977 43.5612 154.54 43.5805 155.116Z" fill="#A177FF"/>
<path d="M24.4745 153.39L23.2019 154.125L22.4147 154.582L21.383 155.175L16.2353 146.866C16.0806 146.611 15.9451 146.345 15.8301 146.07L14.2344 144.763L14.9216 144.36L16.1068 143.667C16.1264 143.667 16.1407 143.647 16.1603 143.638L16.1817 143.626C16.2178 143.605 16.2554 143.587 16.2942 143.572C17.2241 143.215 18.7199 144.097 19.6213 145.552L24.4745 153.39Z" fill="#723EE5"/>
<path d="M41.7348 157.061L40.9941 157.484L40.4015 156.799L25.5866 159.048C25.0997 159.086 24.6141 158.96 24.2068 158.691C23.5124 158.271 22.93 157.689 22.5093 156.995L21.3777 155.169L16.2353 146.865C16.0806 146.611 15.9451 146.344 15.8301 146.069L14.2344 144.763L14.9216 144.359C15.9247 144.475 17.0974 145.35 17.8506 146.562L22.5986 154.218L23.2108 154.125L37.7437 151.917C37.8304 151.902 37.9182 151.895 38.0061 151.895C39.1645 151.895 40.6193 153.02 41.3796 154.509C41.8562 155.451 41.9847 156.386 41.7348 157.061Z" fill="#8D65E5"/>
<path d="M22.1513 159.89C21.4594 159.47 20.879 158.889 20.4591 158.196L14.169 148.06C13.2659 146.603 13.2908 145.127 14.2261 144.765C15.1614 144.402 16.6501 145.286 17.5533 146.743L22.419 154.584L37.7855 152.249C38.8332 152.088 40.3058 153.17 41.0715 154.662C41.8373 156.155 41.607 157.493 40.5575 157.652L23.5364 160.238C23.0488 160.28 22.5614 160.157 22.1513 159.89Z" fill="#8D65E5"/>
<path style="mix-blend-mode:multiply" d="M170.716 116.89H105.043V154.004H170.716V116.89Z" fill="url(#paint6_linear)"/>
<path d="M134.831 136.998V123.79L133.773 123.856C133.536 123.655 133.281 123.475 133.011 123.32L113.043 111.791C110.615 110.389 106.679 110.389 104.252 111.791L80.9495 125.341C80.7567 125.455 80.5708 125.58 80.3926 125.716L79.1289 125.798V138.985C79.1289 139.005 79.1289 139.024 79.1289 139.044V139.112C79.17 140.004 79.7715 140.873 80.9424 141.552L100.91 153.079C103.338 154.48 107.274 154.48 109.701 153.079L133.004 139.528C134.158 138.858 134.76 137.994 134.813 137.12H134.824L134.831 136.998Z" fill="url(#paint7_linear)"/>
<path d="M133.01 126.322L109.709 139.888C107.278 141.289 103.344 141.289 100.918 139.888L80.9468 128.357C79.6313 127.601 79.0351 126.585 79.1458 125.591C79.2368 124.748 79.8348 123.927 80.9468 123.283L104.253 109.732C106.678 108.33 110.612 108.33 113.043 109.732L133.01 121.257C134.122 121.899 134.72 122.722 134.811 123.565C134.923 124.55 134.323 125.566 133.01 126.322Z" fill="white"/>
<path d="M134.809 123.556C134.718 124.393 134.12 125.221 133.008 125.86L109.708 139.426C107.277 140.827 103.343 140.827 100.917 139.426L80.9455 127.895C79.8335 127.254 79.2356 126.428 79.1445 125.591C79.2356 124.748 79.8335 123.927 80.9455 123.283L104.251 109.732C106.677 108.33 110.611 108.33 113.042 109.732L133.008 121.257C134.12 121.891 134.718 122.713 134.809 123.556Z" fill="url(#paint8_linear)"/>
<path d="M124.877 124.992C124.878 125.181 124.867 125.369 124.843 125.556C124.307 130.46 116.647 134.229 106.978 134.229C97.3085 134.229 89.6637 130.46 89.1121 125.556C89.0883 125.369 89.077 125.181 89.0782 124.992C89.0782 119.816 96.9319 115.761 106.978 115.761C117.023 115.761 124.877 119.816 124.877 124.992Z" fill="#5ABAB7"/>
<g style="mix-blend-mode:multiply">
<path d="M106.979 68.7109C94.9862 68.7109 85.5028 73.3803 84.8281 79.4598V79.5223L84.8388 79.583L89.0977 125.558V125.609L89.2048 126.197L89.2137 126.238C90.3561 130.803 97.735 134.231 106.956 134.231C112.696 134.231 117.726 132.901 120.98 130.795C120.98 130.795 120.991 130.795 120.996 130.784C122.803 129.613 124.056 128.201 124.579 126.648C124.701 126.295 124.782 125.929 124.821 125.558H124.832L129.116 79.4598C128.457 73.3803 118.967 68.7109 106.979 68.7109Z" fill="#8D65E5" fill-opacity="0.2"/>
</g>
<path d="M124.843 125.557C124.802 125.929 124.72 126.295 124.598 126.648C124.075 128.201 122.813 129.613 121.016 130.784C121.016 130.784 121.005 130.784 121 130.794C117.746 132.901 112.718 134.23 106.977 134.23C97.7545 134.23 90.3773 130.803 89.235 126.237L89.2243 126.196L89.1172 125.609V125.557C89.6616 120.654 97.3082 116.89 106.983 116.89C116.657 116.89 124.3 120.654 124.843 125.557Z" fill="url(#paint9_linear)"/>
<path d="M208.266 96.6909V83.4823L207.207 83.5502C206.97 83.3489 206.715 83.1696 206.445 83.0147L186.477 71.4858C184.049 70.0829 180.114 70.0829 177.686 71.4858L154.391 85.0406C154.198 85.1545 154.012 85.2797 153.834 85.4154L152.57 85.4975V98.6828C152.57 98.7043 152.57 98.7239 152.57 98.7435V98.8114C152.611 99.7038 153.213 100.575 154.384 101.253L174.352 112.78C176.779 114.181 180.715 114.181 183.143 112.78L206.445 99.229C207.6 98.5597 208.201 97.6958 208.255 96.8212H208.266V96.6909Z" fill="url(#paint10_linear)"/>
<path d="M206.446 86.015L183.146 99.5805C180.714 100.982 176.78 100.982 174.355 99.5805L154.392 88.0391C153.078 87.2841 152.48 86.2667 152.591 85.2743C152.682 84.4318 153.28 83.6107 154.392 82.9646L177.698 69.4151C180.124 68.014 184.058 68.014 186.489 69.4151L206.455 80.9405C207.567 81.583 208.165 82.4059 208.256 83.2484C208.36 84.2426 207.762 85.2582 206.446 86.015Z" fill="white"/>
<path d="M208.246 83.2484C208.155 84.0855 207.557 84.9137 206.445 85.5527L183.144 99.1182C180.713 100.519 176.779 100.519 174.354 99.1182L154.391 87.5768C153.279 86.9378 152.681 86.1114 152.59 85.2743C152.681 84.4318 153.279 83.6107 154.391 82.9646L177.697 69.4151C180.122 68.014 184.056 68.014 186.487 69.4151L206.454 80.9405C207.557 81.583 208.155 82.4059 208.246 83.2484Z" fill="url(#paint11_linear)"/>
<path d="M199.26 98.3582L181.898 108.382V104.525L199.26 94.501V98.3582Z" fill="url(#paint12_linear)"/>
<path d="M205.768 92.6494C205.768 93.7204 204.895 95.1001 203.818 95.7213C202.742 96.3425 201.871 95.9748 201.871 94.8984C201.871 93.8221 202.744 92.4477 203.818 91.8266C204.893 91.2054 205.768 91.5767 205.768 92.6494Z" fill="#A177FF"/>
<path d="M159.616 101.367L158.398 100.664V93.2793L159.616 93.9826V101.367Z" fill="url(#paint13_linear)"/>
<path d="M161.928 102.732L160.711 102.033V94.6465L161.928 95.3497V102.732Z" fill="url(#paint14_linear)"/>
<path d="M164.246 104.1L163.027 103.401V96.0127L164.246 96.716V104.1Z" fill="url(#paint15_linear)"/>
<path d="M166.555 105.466L165.34 104.766V97.3818L166.555 98.0833V105.466Z" fill="url(#paint16_linear)"/>
<path d="M168.868 106.835L167.652 106.133V98.7471L168.868 99.4521V106.835Z" fill="url(#paint17_linear)"/>
<path style="mix-blend-mode:multiply" d="M208.246 83.2499C208.158 84.0871 207.558 84.9117 206.446 85.5543L186.355 97.2438H178.477V69.0312C180.901 68.0244 184.299 68.1565 186.48 69.4113L206.446 80.9384C207.558 81.581 208.158 82.4057 208.246 83.2499Z" fill="url(#paint18_linear)"/>
<path d="M208.266 80.2495V67.0409L207.207 67.1088C206.97 66.9069 206.715 66.7277 206.445 66.5733L186.477 55.0444C184.049 53.6414 180.114 53.6414 177.686 55.0444L154.391 68.5921C154.197 68.7047 154.011 68.8299 153.834 68.9669L152.57 69.0472V82.2343C152.57 82.2539 152.57 82.2736 152.57 82.2932V82.361C152.611 83.2535 153.213 84.1245 154.384 84.8028L174.352 96.3281C176.779 97.7293 180.715 97.7293 183.143 96.3281L206.445 82.7769C207.6 82.1094 208.201 81.2437 208.255 80.3708H208.266V80.2495Z" fill="url(#paint19_linear)"/>
<path d="M206.446 69.5648L183.146 83.1303C180.714 84.5297 176.78 84.5297 174.355 83.1303L154.392 71.5907C153.078 70.8339 152.48 69.8183 152.591 68.8259C152.682 67.9816 153.28 67.1605 154.392 66.5162L177.698 52.9649C180.124 51.5638 184.058 51.5638 186.489 52.9649L206.455 64.4903C207.567 65.1346 208.165 65.9575 208.256 66.8C208.36 67.7924 207.762 68.8098 206.446 69.5648Z" fill="white"/>
<path d="M208.246 66.8C208.155 67.6353 207.557 68.4653 206.445 69.1025L183.144 82.668C180.713 84.0692 176.779 84.0692 174.354 82.668L154.391 71.1284C153.279 70.4876 152.681 69.663 152.59 68.8259C152.681 67.9816 153.279 67.1605 154.391 66.5162L177.697 52.9649C180.122 51.5638 184.056 51.5638 186.487 52.9649L206.454 64.4903C207.557 65.1346 208.155 65.9575 208.246 66.8Z" fill="url(#paint20_linear)"/>
<path d="M199.26 81.9082L181.898 91.9324V88.0769L199.26 78.0527V81.9082Z" fill="url(#paint21_linear)"/>
<path d="M205.768 76.2016C205.768 77.2725 204.895 78.6505 203.818 79.2734C202.742 79.8964 201.871 79.5251 201.871 78.4506C201.871 77.3761 202.744 75.9999 203.818 75.3787C204.893 74.7576 205.768 75.127 205.768 76.2016Z" fill="#A177FF"/>
<path d="M159.616 84.9178L158.398 84.2163V76.832L159.616 77.5353V84.9178Z" fill="url(#paint22_linear)"/>
<path d="M161.928 86.285L160.711 85.5853V78.1992L161.928 78.9007V86.285Z" fill="url(#paint23_linear)"/>
<path d="M164.246 87.652L163.027 86.9505V79.5645L164.246 80.2677V87.652Z" fill="url(#paint24_linear)"/>
<path d="M166.555 89.0156L165.34 88.3177V80.9316L166.555 81.6349V89.0156Z" fill="url(#paint25_linear)"/>
<path d="M168.868 90.3846L167.652 89.6849V82.2988L168.868 83.0021V90.3846Z" fill="url(#paint26_linear)"/>
<path style="mix-blend-mode:multiply" d="M208.246 66.8002C208.158 67.6373 207.558 68.4619 206.446 69.1045L186.355 80.794H178.477V52.5832C180.901 51.5782 184.299 51.7085 186.48 52.9633L206.446 64.4904C207.558 65.133 208.158 65.9577 208.246 66.8002Z" fill="url(#paint27_linear)"/>
<path d="M208.266 63.7924V50.5839L207.207 50.6517C206.97 50.4504 206.715 50.2712 206.445 50.1163L186.477 38.5874C184.049 37.1844 180.114 37.1844 177.686 38.5874L154.391 52.1422C154.198 52.2561 154.012 52.3812 153.834 52.517L152.57 52.5991V65.7915C152.57 65.813 152.57 65.8326 152.57 65.8505V65.9201C152.611 66.8125 153.213 67.6818 154.384 68.3601L174.352 79.8872C176.779 81.2883 180.715 81.2883 183.143 79.8872L206.445 66.327C207.6 65.6577 208.201 64.7938 208.255 63.9192H208.266V63.7924Z" fill="url(#paint28_linear)"/>
<path d="M206.446 53.1185L183.146 66.684C180.714 68.0852 176.78 68.0852 174.355 66.684L154.392 55.1409C153.078 54.3858 152.48 53.3684 152.591 52.376C152.682 51.5335 153.28 50.7124 154.392 50.0663L177.689 36.5187C180.115 35.1175 184.049 35.1175 186.48 36.5187L206.446 48.0422C207.558 48.6865 208.156 49.5094 208.247 50.3519C208.36 51.3443 207.762 52.3599 206.446 53.1185Z" fill="white"/>
<path d="M208.246 50.3501C208.155 51.1872 207.557 52.0154 206.445 52.6545L183.144 66.2199C180.713 67.6211 176.779 67.6211 174.354 66.2199L154.391 54.6786C153.279 54.0396 152.681 53.2131 152.59 52.376C152.681 51.5335 153.279 50.7124 154.391 50.0663L177.688 36.5187C180.114 35.1175 184.048 35.1175 186.479 36.5187L206.445 48.0422C207.557 48.6848 208.155 49.5076 208.246 50.3501Z" fill="url(#paint29_linear)"/>
<path d="M199.26 65.4598L181.898 75.484V71.6267L199.26 61.6025V65.4598Z" fill="url(#paint30_linear)"/>
<path d="M205.768 59.7514C205.768 60.8223 204.895 62.2021 203.818 62.8232C202.742 63.4444 201.871 63.0767 201.871 62.0004C201.871 60.9241 202.744 59.5497 203.818 58.9285C204.893 58.3074 205.768 58.6768 205.768 59.7514Z" fill="#A177FF"/>
<path d="M159.616 68.4676L158.398 67.7661V60.3818L159.616 61.0851V68.4676Z" fill="url(#paint31_linear)"/>
<path d="M161.928 69.8348L160.711 69.1351V61.749L161.928 62.4523V69.8348Z" fill="url(#paint32_linear)"/>
<path d="M164.246 71.202L163.027 70.5023V63.1162L164.246 63.8177V71.202Z" fill="url(#paint33_linear)"/>
<path d="M166.555 72.5674L165.34 71.8677V64.4834L166.555 65.1849V72.5674Z" fill="url(#paint34_linear)"/>
<path d="M168.868 73.9362L167.652 73.2347V65.8486L168.868 66.5519V73.9362Z" fill="url(#paint35_linear)"/>
<path style="mix-blend-mode:multiply" d="M172.355 140.931H123.391V160.115H172.355V140.931Z" fill="url(#paint36_linear)"/>
<path d="M145.631 141.059V147.731C145.585 148.384 145.14 149.027 144.278 149.528L126.902 159.633C125.092 160.675 122.157 160.675 120.347 159.633L111.1 154.205C110.227 153.698 109.781 153.045 109.754 152.386V145.725L110.695 145.662C110.825 145.561 110.962 145.469 111.105 145.387L128.483 135.283C130.293 134.235 133.229 134.235 135.037 135.283L144.28 140.709C144.482 140.823 144.672 140.957 144.847 141.109L145.631 141.059Z" fill="url(#paint37_linear)"/>
<path d="M145.63 141.059V141.114C145.489 141.828 144.972 142.462 144.154 142.94L127.108 153.044C126.189 153.58 124.977 153.883 123.697 153.883C122.417 153.883 121.207 153.585 120.29 153.044L111.212 147.618C110.41 147.145 109.898 146.519 109.746 145.833V145.732L110.687 145.669C110.817 145.568 110.954 145.476 111.097 145.394L128.475 135.29C130.285 134.242 133.222 134.242 135.03 135.29L144.272 140.716C144.474 140.829 144.665 140.963 144.84 141.116L145.63 141.059Z" fill="white"/>
<path d="M145.619 140.881C145.55 141.504 145.105 142.13 144.277 142.598L126.904 152.706C125.093 153.75 122.16 153.75 120.35 152.706L111.104 147.276C110.276 146.799 109.828 146.184 109.762 145.557C109.828 144.931 110.276 144.318 111.104 143.837L128.48 133.732C130.288 132.69 133.223 132.69 135.035 133.732L144.279 139.158C145.111 139.638 145.55 140.252 145.619 140.881Z" fill="url(#paint38_linear)"/>
<path style="mix-blend-mode:multiply" d="M106.049 128.123C106.049 128.123 126.946 127.563 128.609 125.712C130.273 123.861 111.195 121.66 100.795 124.736L99.9414 126.008C99.9414 126.008 100.245 127.363 104.787 128.14L106.049 128.123Z" fill="url(#paint39_linear)"/>
<path d="M108.223 97.1749C108.223 97.1749 108.323 97.3444 108.492 97.6229C109.286 98.9473 111.616 102.742 111.982 102.424C112.199 102.235 113.178 100.182 114.109 97.9067C114.125 97.8639 114.141 97.8246 114.161 97.7835C115.104 95.4631 115.678 92.9392 115.678 91.9272C115.678 88.9374 112.724 83.5273 112.724 83.5273C112.01 83.1953 111.764 85.3836 111.432 85.9369C110.929 86.7776 110.795 88.0628 110.795 88.0628L108.223 97.1749Z" fill="#A177FF"/>
<path d="M94.9122 86.6754C94.9122 86.6754 95.0371 85.9043 94.7533 85.4456C94.4695 84.9868 94.2178 83.7927 93.8144 84.0622C93.411 84.3318 93.8698 85.2117 93.6734 85.1029C93.4771 84.994 91.6172 82.9413 91.353 83.1394C91.0888 83.3376 91.2887 83.6928 91.2887 83.6928C91.2887 83.6928 90.7122 83.2323 90.4945 83.409C90.2767 83.5857 90.3606 83.8695 90.5819 84.1229C90.5819 84.1229 89.984 84.1229 90.5444 84.8565C90.5444 84.8565 90.2803 84.9065 90.6355 85.4456C90.9907 85.9846 92.1848 87.5107 93.8483 87.766C93.843 87.7874 94.9104 87.0324 94.9122 86.6754Z" fill="#F3B698"/>
<path d="M104.305 125.603C104.305 125.603 102.342 124.662 101.674 124.593C101.007 124.523 99.5323 124.425 99.5751 125.544C99.618 126.663 100.684 127.558 102.495 127.891C104.307 128.225 105.781 128.222 105.876 127.891C105.971 127.561 105.896 126.033 105.896 126.033L104.305 125.603Z" fill="#262E54"/>
<path d="M110.55 123.802C110.55 123.802 108.647 122.869 107.981 122.799C107.316 122.73 105.861 122.655 105.907 123.775C105.954 124.896 106.928 125.757 108.74 126.096C110.552 126.435 112.026 126.43 112.131 126.096C112.237 125.762 112.149 124.238 112.149 124.238L110.55 123.802Z" fill="#262E54"/>
<path d="M103.027 102.497L103.295 125.88C103.295 126.11 103.707 126.305 104.254 126.355C104.346 126.365 104.439 126.37 104.532 126.367C105.212 126.367 106.138 126.287 106.138 126.021L107.982 109.437L109.303 124.224C109.303 124.466 109.74 124.661 110.324 124.698C110.396 124.709 110.468 124.713 110.54 124.711C111.222 124.711 112.159 124.63 112.159 124.365L112.591 105.689C112.689 105.095 112.818 104.508 112.98 103.929C113.428 102.679 113.26 100.254 113.26 100.254C113.1 99.8288 109.869 100.364 107.509 100.873C106.745 101.052 106.065 101.187 105.628 101.31L105.337 101.394C104.516 101.642 103.737 102.014 103.027 102.497Z" fill="url(#paint40_linear)"/>
<g style="mix-blend-mode:multiply">
<path d="M107.98 109.437L109.301 124.224C109.301 124.467 109.739 124.661 110.322 124.699L109.23 108.856L109.799 104.814L107.98 109.437Z" fill="#E6E7E8"/>
</g>
<g style="mix-blend-mode:multiply">
<path d="M103.027 102.498L103.295 125.88C103.295 126.11 103.707 126.305 104.254 126.355V105.166L105.635 101.311L105.344 101.394C104.52 101.642 103.739 102.014 103.027 102.498Z" fill="#E6E7E8"/>
</g>
<g style="mix-blend-mode:multiply">
<g style="mix-blend-mode:multiply">
<path d="M108.492 97.6224C109.286 98.9469 111.616 102.742 111.982 102.424C112.2 102.235 113.324 99.0682 113.693 98.2829L114.365 92.3212C114.209 89.1351 112.442 88.3015 111.432 88.0605C111.155 88.4963 110.941 88.9685 110.795 89.4635L108.492 97.6224Z" fill="#D1D3D4"/>
</g>
</g>
<path d="M113.296 96.079V100.047V102.703C112.798 103.203 112.011 103.676 110.906 104.04C109.219 104.593 107.661 105.148 106.147 105.082C105.791 105.067 105.436 105.013 105.091 104.923C104.277 104.701 103.528 104.289 102.906 103.72C102.711 100.168 103.789 92.2271 103.852 91.7612V91.7416L103.031 92.5359C102.595 92.8147 102.1 92.9868 101.585 93.0383C101.07 93.0898 100.55 93.0192 100.068 92.8322C98.7131 92.2807 95.4038 89.4408 94.1187 88.302C93.8634 88.0771 93.7617 88.0682 93.7117 87.9451C93.5189 87.4899 94.2222 86.2636 95.1307 86.5742C95.8447 86.8205 96.2677 87.1418 97.8867 87.8237C100.061 88.7322 100.95 89.3462 100.95 89.3462C100.95 89.3462 102.981 85.3498 104.125 84.4983C104.561 84.1663 105.469 83.7326 106.445 83.3167C108.023 82.6438 109.801 82.0405 110.037 82.0673C110.426 82.1226 113.428 82.2458 113.63 86.4368L113.296 96.079Z" fill="#A177FF"/>
<g style="mix-blend-mode:multiply">
<g style="mix-blend-mode:multiply">
<path d="M102.891 103.72C103.513 104.288 104.262 104.701 105.075 104.923C106.587 103.445 106.146 93.7347 106.421 92.9404C106.743 92.0354 107.314 89.6829 106.421 89.6365C105.529 89.5901 103.84 91.7498 103.84 91.7498V91.7695C103.774 92.2264 102.696 100.168 102.891 103.72Z" fill="#D1D3D4"/>
</g>
</g>
<g style="mix-blend-mode:multiply">
<g style="mix-blend-mode:multiply">
<path d="M106.422 83.3252C107.238 83.7411 109.263 83.5412 109.77 83.2181C110.277 82.895 110.02 82.0775 110.02 82.0775C109.783 82.0436 108.009 82.6541 106.422 83.3252Z" fill="#D1D3D4"/>
</g>
</g>
<path d="M105.162 75.7234L105.487 75.8055L105.455 75.6734L107.788 75.3896L109.767 80.4285V82.1117C109.441 82.9453 106.747 83.1827 106.683 83.2148C106.619 83.2469 106.646 81.5655 106.588 81.3942C105.321 81.4084 104.625 80.9569 104.625 78.8131C104.632 75.8234 105.162 75.7234 105.162 75.7234Z" fill="#F3B698"/>
<path d="M105.84 79.5662C105.84 79.5662 106.197 79.8625 106.322 79.6733C106.447 79.4841 106.679 78.8576 107.118 79.0664C107.557 79.2752 108.367 81.4404 108.746 81.5939C109.124 81.7474 109.41 82.0758 110.082 81.4404C110.818 80.7442 111.85 79.2984 111.83 76.9155C111.807 74.4166 110.241 73.285 108.915 73.2832C104.81 73.2832 104.726 74.522 104.772 75.3894C104.831 76.4318 105.999 76.2819 105.999 76.2819C105.999 76.2819 105.431 77.1744 105.583 77.5314C105.734 77.8883 106.206 78.4095 105.84 79.5662Z" fill="#282A55"/>
<path style="mix-blend-mode:multiply" d="M221.999 161.784H154.059V186.391H221.999V161.784Z" fill="url(#paint41_linear)"/>
<path d="M142.105 147.074V179.44C142.184 180.409 142.93 181.414 144.303 182.212L148.836 184.825C151.514 186.367 155.539 186.535 157.85 185.202L185.952 168.977C187.004 168.372 187.512 167.549 187.512 166.708V134.779L142.105 147.074Z" fill="url(#paint42_linear)"/>
<path d="M142.105 147.074V148.452C142.511 149.118 143.176 149.737 144.08 150.255L148.612 152.873C150.084 153.721 152.026 154.207 153.941 154.207C155.548 154.207 157.017 153.866 158.091 153.241L186.197 137.019C186.723 136.727 187.175 136.319 187.521 135.827V134.779L142.105 147.074Z" fill="#30BFBF"/>
<path d="M142.117 147.088C142.201 148.058 142.94 149.052 144.311 149.852L145.203 150.362L148.85 152.468C151.527 154.01 155.549 154.175 157.859 152.841L185.966 136.614C186.933 136.058 187.442 135.32 187.517 134.547C187.433 133.584 186.692 132.584 185.316 131.79L180.784 129.169C178.116 127.629 174.082 127.461 171.77 128.793L169.287 130.221L160.509 135.29L143.67 145.018C143.524 145.099 143.384 145.19 143.251 145.291C142.551 145.81 142.176 146.435 142.117 147.088Z" fill="url(#paint43_linear)"/>
<path d="M169.648 171.239C169.895 171.234 170.136 171.163 170.347 171.035L172.903 169.559C173.278 169.319 173.589 168.992 173.811 168.607C174.034 168.221 174.161 167.788 174.181 167.344V163.26C174.181 162.737 174.492 161.916 174.874 161.427C176.291 159.613 177.139 157.484 177.139 155.731C177.139 153.662 175.957 152.327 174.124 152.327C173.275 152.327 172.316 152.62 171.352 153.175C168.42 154.869 166.031 158.651 166.031 161.603C166.031 163.101 166.624 164.206 167.697 164.716C167.909 164.816 168.603 165.189 168.603 165.744V170.028C168.592 170.33 168.684 170.627 168.866 170.869C168.959 170.987 169.078 171.082 169.213 171.146C169.349 171.211 169.497 171.243 169.648 171.24V171.239Z" fill="#30BFBF"/>
<path d="M171.12 153.58C173.928 151.956 176.207 152.92 176.207 155.731C176.207 157.452 175.35 159.465 174.042 161.141C173.63 161.666 173.25 162.594 173.25 163.26V167.344C173.229 167.707 173.124 168.06 172.942 168.374C172.761 168.689 172.508 168.956 172.204 169.155L169.649 170.63C169.071 170.965 168.603 170.694 168.603 170.027V165.743C168.603 165.077 168.032 164.579 167.431 164.293C166.565 163.883 166.031 162.958 166.031 161.602C166.031 158.787 168.314 155.201 171.12 153.58Z" fill="#262E54"/>
<g style="mix-blend-mode:multiply">
<path d="M160.504 135.299H177.486V130.229H169.282L160.504 135.299Z" fill="#E6E7E8"/>
</g>
<g style="mix-blend-mode:multiply">
<path d="M142.117 147.088C142.201 148.057 142.94 149.052 144.311 149.851L145.203 150.362H151.32V145.298H143.251C142.551 145.81 142.176 146.435 142.117 147.088Z" fill="#E6E7E8"/>
</g>
<path d="M151.427 150.344C153.292 150.344 154.808 149.295 154.808 147.428V133.998C154.808 128.902 159.233 122.039 164.47 119.019L167.825 117.082C170.406 115.591 172.241 115.595 173.03 116.048C173.967 116.584 174.101 118.099 174.101 118.952V132.382C174.101 134.249 175.615 135.297 177.482 135.297C179.349 135.297 180.863 134.249 180.863 132.382V118.952C180.863 114.963 179.281 111.852 176.4 110.192C173.166 108.327 168.804 108.702 164.441 111.225L161.085 113.162C153.767 117.385 148.043 126.538 148.043 133.998V147.428C148.047 149.295 149.569 150.344 151.427 150.344Z" fill="#A177FF"/>
<defs>
<linearGradient id="paint0_linear" x1="121.981" y1="123.494" x2="61.1627" y2="121.215" gradientUnits="userSpaceOnUse">
<stop stop-color="white"/>
<stop offset="0.31" stop-color="#FBFCFC"/>
<stop offset="0.59" stop-color="#F0F1F1"/>
<stop offset="0.86" stop-color="#DEDFE0"/>
<stop offset="1" stop-color="#D1D3D4"/>
</linearGradient>
<linearGradient id="paint1_linear" x1="103.449" y1="68.9851" x2="49.3945" y2="68.9851" gradientUnits="userSpaceOnUse">
<stop stop-color="#D2E9E6"/>
<stop offset="0.34" stop-color="#A6D3D1"/>
<stop offset="1" stop-color="#D2E9E6"/>
</linearGradient>
<linearGradient id="paint2_linear" x1="104.584" y1="69.9024" x2="52.1797" y2="69.9024" gradientUnits="userSpaceOnUse">
<stop stop-color="#D2E9E6"/>
<stop offset="0.66" stop-color="#A6D3D1"/>
<stop offset="1" stop-color="#D2E9E6"/>
</linearGradient>
<linearGradient id="paint3_linear" x1="101.908" y1="68.002" x2="54.6506" y2="68.002" gradientUnits="userSpaceOnUse">
<stop stop-color="#2CA2A0"/>
<stop offset="1" stop-color="#18898E"/>
</linearGradient>
<linearGradient id="paint4_linear" x1="-333645" y1="21440.3" x2="-371581" y2="21440.3" gradientUnits="userSpaceOnUse">
<stop stop-color="white"/>
<stop offset="0.31" stop-color="#FBFCFC"/>
<stop offset="0.59" stop-color="#F0F1F1"/>
<stop offset="0.86" stop-color="#DEDFE0"/>
<stop offset="1" stop-color="#D1D3D4"/>
</linearGradient>
<linearGradient id="paint5_linear" x1="6.86864" y1="153.007" x2="50.2211" y2="153.007" gradientUnits="userSpaceOnUse">
<stop stop-color="white"/>
<stop offset="1" stop-color="#E6E7E8"/>
</linearGradient>
<linearGradient id="paint6_linear" x1="105.043" y1="135.448" x2="170.716" y2="135.448" gradientUnits="userSpaceOnUse">
<stop stop-color="#D1D3D4"/>
<stop offset="0.14" stop-color="#DEDFE0"/>
<stop offset="0.41" stop-color="#F0F1F1"/>
<stop offset="0.69" stop-color="#FBFCFC"/>
<stop offset="1" stop-color="white"/>
</linearGradient>
<linearGradient id="paint7_linear" x1="79.1289" y1="132.441" x2="134.831" y2="132.441" gradientUnits="userSpaceOnUse">
<stop stop-color="#D2E9E6"/>
<stop offset="0.71" stop-color="#A6D3D1"/>
<stop offset="1" stop-color="#A6D3D1"/>
</linearGradient>
<linearGradient id="paint8_linear" x1="79.1445" y1="124.57" x2="134.809" y2="124.57" gradientUnits="userSpaceOnUse">
<stop stop-color="#A6D3D1"/>
<stop offset="0.29" stop-color="#A6D3D1"/>
<stop offset="1" stop-color="#D2E9E6"/>
</linearGradient>
<linearGradient id="paint9_linear" x1="29215.7" y1="20576.1" x2="36367.2" y2="20576.1" gradientUnits="userSpaceOnUse">
<stop stop-color="#2CA2A0"/>
<stop offset="1" stop-color="#18898E"/>
</linearGradient>
<linearGradient id="paint10_linear" x1="65358.4" y1="43146" x2="82739.2" y2="43146" gradientUnits="userSpaceOnUse">
<stop stop-color="#D2E9E6"/>
<stop offset="0.71" stop-color="#A6D3D1"/>
<stop offset="1" stop-color="#A6D3D1"/>
</linearGradient>
<linearGradient id="paint11_linear" x1="65318" y1="30234.6" x2="82674.9" y2="30234.6" gradientUnits="userSpaceOnUse">
<stop stop-color="#A6D3D1"/>
<stop offset="0.29" stop-color="#A6D3D1"/>
<stop offset="1" stop-color="#D2E9E6"/>
</linearGradient>
<linearGradient id="paint12_linear" x1="23305.9" y1="-4951.99" x2="24994.7" y2="-4951.99" gradientUnits="userSpaceOnUse">
<stop stop-color="#2CA2A0"/>
<stop offset="1" stop-color="#18898E"/>
</linearGradient>
<linearGradient id="paint13_linear" x1="1566.96" y1="13538.1" x2="1575.27" y2="13538.1" gradientUnits="userSpaceOnUse">
<stop stop-color="#2CA2A0"/>
<stop offset="1" stop-color="#18898E"/>
</linearGradient>
<linearGradient id="paint14_linear" x1="1585.07" y1="13548.5" x2="1593.38" y2="13548.5" gradientUnits="userSpaceOnUse">
<stop stop-color="#2CA2A0"/>
<stop offset="1" stop-color="#18898E"/>
</linearGradient>
<linearGradient id="paint15_linear" x1="1605.37" y1="13565.9" x2="1613.68" y2="13565.9" gradientUnits="userSpaceOnUse">
<stop stop-color="#2CA2A0"/>
<stop offset="1" stop-color="#18898E"/>
</linearGradient>
<linearGradient id="paint16_linear" x1="1619.04" y1="13570.9" x2="1627.32" y2="13570.9" gradientUnits="userSpaceOnUse">
<stop stop-color="#2CA2A0"/>
<stop offset="1" stop-color="#18898E"/>
</linearGradient>
<linearGradient id="paint17_linear" x1="1637.11" y1="13589.8" x2="1645.38" y2="13589.8" gradientUnits="userSpaceOnUse">
<stop stop-color="#2CA2A0"/>
<stop offset="1" stop-color="#18898E"/>
</linearGradient>
<linearGradient id="paint18_linear" x1="39352.9" y1="27225.6" x2="44317.8" y2="27225.6" gradientUnits="userSpaceOnUse">
<stop stop-color="#D1D3D4"/>
<stop offset="0.14" stop-color="#DEDFE0"/>
<stop offset="0.41" stop-color="#F0F1F1"/>
<stop offset="0.69" stop-color="#FBFCFC"/>
<stop offset="1" stop-color="white"/>
</linearGradient>
<linearGradient id="paint19_linear" x1="65358.4" y1="39120.4" x2="82739.2" y2="39120.4" gradientUnits="userSpaceOnUse">
<stop stop-color="#D2E9E6"/>
<stop offset="0.71" stop-color="#A6D3D1"/>
<stop offset="1" stop-color="#A6D3D1"/>
</linearGradient>
<linearGradient id="paint20_linear" x1="65318" y1="27287" x2="82674.9" y2="27287" gradientUnits="userSpaceOnUse">
<stop stop-color="#A6D3D1"/>
<stop offset="0.29" stop-color="#A6D3D1"/>
<stop offset="1" stop-color="#D2E9E6"/>
</linearGradient>
<linearGradient id="paint21_linear" x1="23305.9" y1="-6248.67" x2="24994.7" y2="-6248.67" gradientUnits="userSpaceOnUse">
<stop stop-color="#2CA2A0"/>
<stop offset="1" stop-color="#18898E"/>
</linearGradient>
<linearGradient id="paint22_linear" x1="1566.96" y1="12773.6" x2="1575.27" y2="12773.6" gradientUnits="userSpaceOnUse">
<stop stop-color="#2CA2A0"/>
<stop offset="1" stop-color="#18898E"/>
</linearGradient>
<linearGradient id="paint23_linear" x1="1585.07" y1="12786.9" x2="1593.38" y2="12786.9" gradientUnits="userSpaceOnUse">
<stop stop-color="#2CA2A0"/>
<stop offset="1" stop-color="#18898E"/>
</linearGradient>
<linearGradient id="paint24_linear" x1="1605.37" y1="12804.1" x2="1613.68" y2="12804.1" gradientUnits="userSpaceOnUse">
<stop stop-color="#2CA2A0"/>
<stop offset="1" stop-color="#18898E"/>
</linearGradient>
<linearGradient id="paint25_linear" x1="1619.04" y1="12809.5" x2="1627.32" y2="12809.5" gradientUnits="userSpaceOnUse">
<stop stop-color="#2CA2A0"/>
<stop offset="1" stop-color="#18898E"/>
</linearGradient>
<linearGradient id="paint26_linear" x1="1637.11" y1="12825.4" x2="1645.38" y2="12825.4" gradientUnits="userSpaceOnUse">
<stop stop-color="#2CA2A0"/>
<stop offset="1" stop-color="#18898E"/>
</linearGradient>
<linearGradient id="paint27_linear" x1="39352.9" y1="24545.6" x2="44317.8" y2="24545.6" gradientUnits="userSpaceOnUse">
<stop stop-color="#D1D3D4"/>
<stop offset="0.14" stop-color="#DEDFE0"/>
<stop offset="0.41" stop-color="#F0F1F1"/>
<stop offset="0.69" stop-color="#FBFCFC"/>
<stop offset="1" stop-color="white"/>
</linearGradient>
<linearGradient id="paint28_linear" x1="65358.4" y1="35118.8" x2="82739.2" y2="35118.8" gradientUnits="userSpaceOnUse">
<stop stop-color="#D2E9E6"/>
<stop offset="0.71" stop-color="#A6D3D1"/>
<stop offset="1" stop-color="#A6D3D1"/>
</linearGradient>
<linearGradient id="paint29_linear" x1="65318" y1="24338.4" x2="82674.9" y2="24338.4" gradientUnits="userSpaceOnUse">
<stop stop-color="#A6D3D1"/>
<stop offset="0.29" stop-color="#A6D3D1"/>
<stop offset="1" stop-color="#D2E9E6"/>
</linearGradient>
<linearGradient id="paint30_linear" x1="23305.9" y1="-7543.38" x2="24994.7" y2="-7543.38" gradientUnits="userSpaceOnUse">
<stop stop-color="#2CA2A0"/>
<stop offset="1" stop-color="#18898E"/>
</linearGradient>
<linearGradient id="paint31_linear" x1="1566.96" y1="12012.1" x2="1575.27" y2="12012.1" gradientUnits="userSpaceOnUse">
<stop stop-color="#2CA2A0"/>
<stop offset="1" stop-color="#18898E"/>
</linearGradient>
<linearGradient id="paint32_linear" x1="1585.07" y1="12025.3" x2="1593.38" y2="12025.3" gradientUnits="userSpaceOnUse">
<stop stop-color="#2CA2A0"/>
<stop offset="1" stop-color="#18898E"/>
</linearGradient>
<linearGradient id="paint33_linear" x1="1605.37" y1="12039.9" x2="1613.68" y2="12039.9" gradientUnits="userSpaceOnUse">
<stop stop-color="#2CA2A0"/>
<stop offset="1" stop-color="#18898E"/>
</linearGradient>
<linearGradient id="paint34_linear" x1="1619.04" y1="12048.1" x2="1627.32" y2="12048.1" gradientUnits="userSpaceOnUse">
<stop stop-color="#2CA2A0"/>
<stop offset="1" stop-color="#18898E"/>
</linearGradient>
<linearGradient id="paint35_linear" x1="1637.11" y1="12066.3" x2="1645.38" y2="12066.3" gradientUnits="userSpaceOnUse">
<stop stop-color="#2CA2A0"/>
<stop offset="1" stop-color="#18898E"/>
</linearGradient>
<linearGradient id="paint36_linear" x1="33968" y1="16319.6" x2="47399.9" y2="16319.6" gradientUnits="userSpaceOnUse">
<stop stop-color="#D1D3D4"/>
<stop offset="0.14" stop-color="#DEDFE0"/>
<stop offset="0.41" stop-color="#F0F1F1"/>
<stop offset="0.69" stop-color="#FBFCFC"/>
<stop offset="1" stop-color="white"/>
</linearGradient>
<linearGradient id="paint37_linear" x1="33507.5" y1="33892.8" x2="40720.2" y2="33892.8" gradientUnits="userSpaceOnUse">
<stop stop-color="#A6D3D1"/>
<stop offset="0.29" stop-color="#A6D3D1"/>
<stop offset="1" stop-color="#D2E9E6"/>
</linearGradient>
<linearGradient id="paint38_linear" x1="33491.3" y1="26397.5" x2="40695.1" y2="26397.5" gradientUnits="userSpaceOnUse">
<stop stop-color="#D2E9E6"/>
<stop offset="0.71" stop-color="#A6D3D1"/>
<stop offset="1" stop-color="#A6D3D1"/>
</linearGradient>
<linearGradient id="paint39_linear" x1="99.9414" y1="125.673" x2="128.711" y2="125.673" gradientUnits="userSpaceOnUse">
<stop stop-color="#D1D3D4"/>
<stop offset="0.57" stop-color="#EEEFEF"/>
<stop offset="1" stop-color="white"/>
</linearGradient>
<linearGradient id="paint40_linear" x1="113.298" y1="113.23" x2="103.027" y2="113.23" gradientUnits="userSpaceOnUse">
<stop stop-color="#58BAB1"/>
<stop offset="0.17" stop-color="#51B3AA"/>
<stop offset="0.57" stop-color="#46A89F"/>
<stop offset="1" stop-color="#42A49B"/>
</linearGradient>
<linearGradient id="paint41_linear" x1="-233651" y1="35799.4" x2="-259511" y2="35799.4" gradientUnits="userSpaceOnUse">
<stop stop-color="white"/>
<stop offset="0.31" stop-color="#FBFCFC"/>
<stop offset="0.59" stop-color="#F0F1F1"/>
<stop offset="0.86" stop-color="#DEDFE0"/>
<stop offset="1" stop-color="#D1D3D4"/>
</linearGradient>
<linearGradient id="paint42_linear" x1="187.521" y1="160.438" x2="142.105" y2="160.438" gradientUnits="userSpaceOnUse">
<stop stop-color="#2CA2A0"/>
<stop offset="0.7" stop-color="#18898E"/>
<stop offset="1" stop-color="#2CA2A0"/>
</linearGradient>
<linearGradient id="paint43_linear" x1="187.515" y1="140.818" x2="142.117" y2="140.818" gradientUnits="userSpaceOnUse">
<stop stop-color="#18898E"/>
<stop offset="1" stop-color="#2CA2A0"/>
</linearGradient>
</defs>
</svg>
