<svg width="193" height="142" viewBox="0 0 193 142" fill="none" xmlns="http://www.w3.org/2000/svg">
<path style="mix-blend-mode:multiply" d="M123.866 12.2822L123.852 12.1667C123.726 11.1652 122.947 10.2608 121.657 9.62546L104.11 0.933323C102.891 0.331516 101.299 0 99.6262 0C97.9534 0 96.3614 0.331516 95.1425 0.936789L74.6581 11.1502C73.3691 11.789 72.5893 12.6934 72.464 13.6914L72.4492 13.8069L72.464 13.9224C72.4827 14.0622 72.5142 14.2005 72.5583 14.336L81.4907 62.8236C81.5715 63.4739 82.0779 64.0596 82.9143 64.472L94.302 70.1112C95.0899 70.5016 96.123 70.7164 97.2072 70.7164C98.2914 70.7164 99.3258 70.5016 100.119 70.11L113.403 63.489C114.24 63.0766 114.75 62.491 114.829 61.8383L123.765 12.8066C123.807 12.6733 123.838 12.5374 123.856 12.4L123.866 12.2822Z" fill="url(#paint0_linear)"/>
<path style="mix-blend-mode:multiply" d="M193 47.6419L192.986 47.5264C192.86 46.5238 192.081 45.6193 190.791 44.9794L173.241 36.2919C172.029 35.6889 170.43 35.3574 168.757 35.3574C167.085 35.3574 165.494 35.6889 164.274 36.2942L143.793 46.5099C142.506 47.1498 141.726 48.0531 141.601 49.0511L141.586 49.1667L141.601 49.2822C141.619 49.4219 141.651 49.5602 141.695 49.6957L150.627 98.1834C150.71 98.8337 151.215 99.4193 152.051 99.8328L163.439 105.471C164.227 105.861 165.26 106.077 166.344 106.077C167.428 106.077 168.463 105.861 169.256 105.47L182.537 98.8429C183.374 98.4306 183.884 97.8449 183.962 97.1934L192.897 48.1617C192.94 48.0284 192.97 47.8925 192.989 47.7551L193 47.6419Z" fill="url(#paint1_linear)"/>
<path style="mix-blend-mode:multiply" d="M51.4164 48.1986L51.4015 48.0831C51.2763 47.0805 50.4978 46.1772 49.2075 45.5419L31.6579 36.8544C30.439 36.2514 28.847 35.9199 27.1742 35.9199C25.5014 35.9199 23.9094 36.2514 22.6905 36.8567L2.2075 47.0666C0.91856 47.7066 0.140073 48.611 0.0148155 49.6079L0 49.7234L0.0148155 49.8389C0.0333566 49.979 0.0648826 50.1177 0.109095 50.2536L9.04147 98.7412C9.12228 99.3916 9.6287 99.9772 10.4651 100.39L21.8528 106.028C22.6407 106.419 23.6724 106.634 24.758 106.634C25.8435 106.634 26.8752 106.419 27.6685 106.026L40.9499 99.3997C41.7863 98.9884 42.2968 98.4016 42.3762 97.7502L51.3113 48.7196C51.3537 48.5863 51.3838 48.4503 51.4015 48.313L51.4164 48.1986Z" fill="url(#paint2_linear)"/>
<path d="M63.605 79.1414L63.1543 79.8105L132.708 114.264L133.158 113.595L63.605 79.1414Z" fill="#B1DBC6"/>
<path d="M168.202 96.0729L92.1699 133.735L92.6206 134.405L168.653 96.7421L168.202 96.0729Z" fill="#B1DBC6"/>
<path d="M99.8575 61.0692L23.7871 98.6748L24.2371 99.3443L100.307 61.7387L99.8575 61.0692Z" fill="#B1DBC6"/>
<path style="mix-blend-mode:multiply" d="M62.0495 87.6172H24.6055V105.765H62.0495V87.6172Z" fill="url(#paint3_linear)"/>
<path d="M41.587 97.4493V90.9946L40.9836 91.027C40.8487 90.9281 40.703 90.8407 40.5485 90.7659L29.1635 85.1279C27.7803 84.4417 25.5351 84.4417 24.1519 85.1279L10.8651 91.7535C10.7551 91.8095 10.649 91.8708 10.5472 91.9372L9.82668 91.9776V98.4254C9.826 98.435 9.826 98.4446 9.82668 98.4543V98.4878C9.84957 98.9209 10.1917 99.3506 10.8597 99.6821L22.2447 105.319C23.6293 106.004 25.8732 106.004 27.2564 105.319L40.5432 98.6922C41.2031 98.3653 41.5452 97.9426 41.5748 97.5152L41.587 97.4493Z" fill="url(#paint4_linear)"/>
<path d="M40.5489 92.2291L27.2634 98.8583C25.8775 99.5432 23.635 99.5432 22.2518 98.8583L10.8641 93.2191C10.1152 92.8494 9.77314 92.3527 9.83778 91.8664C9.88897 91.4541 10.2297 91.0579 10.8641 90.7379L24.1536 84.1123C25.5354 83.4261 27.7779 83.4261 29.1652 84.1123L40.5489 89.7468C41.1832 90.0622 41.524 90.4641 41.5765 90.8765C41.6412 91.3628 41.2991 91.8595 40.5489 92.2291Z" fill="white"/>
<path d="M41.5747 90.8765C41.5221 91.2854 41.1814 91.6909 40.547 92.0027L27.2616 98.6319C25.8757 99.318 23.6332 99.318 22.2499 98.6319L10.8622 92.9927C10.2279 92.6796 9.88712 92.2765 9.83594 91.8664C9.88712 91.4541 10.2279 91.0579 10.8622 90.7379L24.1517 84.1123C25.5336 83.4261 27.7761 83.4261 29.1634 84.1123L40.547 89.7468C41.1814 90.0622 41.5221 90.4641 41.5747 90.8765Z" fill="url(#paint5_linear)"/>
<path d="M36.4561 98.2642L26.5566 103.165V101.28L36.4561 96.3779V98.2642Z" fill="url(#paint6_linear)"/>
<path d="M40.1643 95.4734C40.1643 95.999 39.666 96.6713 39.0532 96.975C38.4403 97.2788 37.9434 97.0986 37.9434 96.5731C37.9434 96.0475 38.4403 95.3752 39.0532 95.0714C39.666 94.7677 40.1643 94.9478 40.1643 95.4734Z" fill="#A177FF"/>
<path d="M13.8518 99.7361L13.1582 99.3931V95.7822L13.8518 96.1253V99.7361Z" fill="url(#paint7_linear)"/>
<path d="M15.1682 100.403L14.4746 100.061V96.4492L15.1682 96.7934V100.403Z" fill="url(#paint8_linear)"/>
<path d="M16.4899 101.073L15.7949 100.729V97.1172L16.4899 97.4614V101.073Z" fill="url(#paint9_linear)"/>
<path d="M17.8069 101.74L17.1133 101.398V97.7861L17.8069 98.1304V101.74Z" fill="url(#paint10_linear)"/>
<path d="M19.1259 102.408L18.4336 102.066V98.4541L19.1259 98.7983V102.408Z" fill="url(#paint11_linear)"/>
<path style="mix-blend-mode:multiply" d="M41.5766 90.8771C41.5268 91.2871 41.1847 91.6857 40.5503 92.0045L29.0953 97.7199H24.6035V83.9245C25.9854 83.4325 27.9235 83.4971 29.1667 84.1105L40.5503 89.7474C41.1847 90.0627 41.5268 90.4647 41.5766 90.8771Z" fill="url(#paint12_linear)"/>
<path d="M41.587 89.4057V82.9499L40.9836 82.9822C40.8481 82.8841 40.7025 82.7967 40.5486 82.7211L29.1636 77.0842C27.7803 76.3912 25.5351 76.3912 24.1519 77.0842L10.8651 83.7099C10.7549 83.7655 10.6487 83.8268 10.5473 83.8936L9.8267 83.934V90.3818C9.826 90.3914 9.826 90.401 9.8267 90.4106V90.4441C9.8496 90.8773 10.1917 91.3058 10.8597 91.6374L22.2447 97.2742C23.6293 97.9604 25.8732 97.9604 27.2564 97.2742L40.5432 90.6474C41.2031 90.3205 41.5452 89.8978 41.5749 89.4704L41.587 89.4057Z" fill="url(#paint13_linear)"/>
<path d="M40.5489 84.1852L27.2634 90.8155C25.8775 91.5005 23.635 91.5005 22.2518 90.8155L10.8641 85.1763C10.1152 84.8066 9.77314 84.3088 9.83778 83.8237C9.88897 83.4113 10.2297 83.0151 10.8641 82.694L24.1536 76.0683C25.5354 75.3822 27.7779 75.3822 29.1652 76.0683L40.5489 81.704C41.1832 82.0194 41.524 82.4214 41.5765 82.8326C41.6412 83.3189 41.2991 83.819 40.5489 84.1852Z" fill="white"/>
<path d="M41.5747 82.8326C41.5221 83.2415 41.1814 83.6411 40.547 83.9599L27.2616 90.5879C25.8757 91.274 23.6332 91.274 22.2499 90.5879L10.8622 84.9499C10.2279 84.6368 9.88712 84.2326 9.83594 83.8237C9.88712 83.4113 10.2279 83.0151 10.8622 82.694L24.1517 76.0683C25.5336 75.3822 27.7761 75.3822 29.1634 76.0683L40.547 81.704C41.1814 82.0194 41.5221 82.4214 41.5747 82.8326Z" fill="url(#paint14_linear)"/>
<path d="M36.4561 90.2222L26.5566 95.1233V93.2382L36.4561 88.3359V90.2222Z" fill="url(#paint15_linear)"/>
<path d="M40.1643 87.4308C40.1643 87.9576 39.666 88.6298 39.0532 88.9325C38.4403 89.2351 37.9434 89.0549 37.9434 88.5293C37.9434 88.0038 38.4403 87.3327 39.0532 87.0277C39.666 86.7228 40.1643 86.9053 40.1643 87.4308Z" fill="#A177FF"/>
<path d="M13.8518 91.6922L13.1582 91.3491V87.7383L13.8518 88.0825V91.6922Z" fill="url(#paint16_linear)"/>
<path d="M15.1682 92.3611L14.4746 92.0181V88.4072L15.1682 88.7503V92.3611Z" fill="url(#paint17_linear)"/>
<path d="M16.4899 93.0303L15.7949 92.6872V89.0752L16.4899 89.4194V93.0303Z" fill="url(#paint18_linear)"/>
<path d="M17.8069 93.698L17.1133 93.3561V89.7441L17.8069 90.0872V93.698Z" fill="url(#paint19_linear)"/>
<path d="M19.1259 94.366L18.4336 94.0241V90.4121L19.1259 90.7563V94.366Z" fill="url(#paint20_linear)"/>
<path style="mix-blend-mode:multiply" d="M41.5766 82.8343C41.5268 83.2432 41.1847 83.6429 40.5503 83.9617L29.0953 89.6771H24.6035V75.8806C25.9854 75.3897 27.9235 75.4544 29.1667 76.0677L40.5503 81.7035C41.1847 82.0188 41.5268 82.4219 41.5766 82.8343Z" fill="url(#paint21_linear)"/>
<path d="M41.587 81.3616V74.9058L40.9836 74.9381C40.8481 74.8396 40.7025 74.7519 40.5485 74.6759L29.1635 69.039C27.7803 68.3529 25.5351 68.3529 24.1519 69.039L10.8651 75.6658C10.7549 75.721 10.6487 75.7819 10.5472 75.8483L9.82668 75.8876V82.3365C9.826 82.3462 9.826 82.3558 9.82668 82.3654V82.3989C9.84957 82.8321 10.1917 83.2606 10.8597 83.5921L22.2447 89.229C23.6293 89.9128 25.8732 89.9128 27.2564 89.229L40.5432 82.6022C41.2031 82.2753 41.5452 81.8525 41.5748 81.4252L41.587 81.3616Z" fill="url(#paint22_linear)"/>
<path d="M40.5489 76.1415L27.2634 82.7707C25.8775 83.4556 23.635 83.4556 22.2518 82.7707L10.8641 77.1315C10.1152 76.763 9.77314 76.2651 9.83778 75.78C9.88897 75.3665 10.2297 74.9657 10.8641 74.6503L24.1536 68.0235C25.5354 67.3385 27.7779 67.3385 29.1652 68.0235L40.5489 73.6592C41.1832 73.9746 41.524 74.3765 41.5765 74.7889C41.6412 75.2706 41.2991 75.7719 40.5489 76.1415Z" fill="white"/>
<path d="M41.5747 74.7903C41.5221 75.1981 41.1814 75.6047 40.547 75.9166L27.2616 82.5491C25.8757 83.2341 23.6332 83.2341 22.2499 82.5491L10.8622 76.9111C10.2279 76.5981 9.88712 76.1938 9.83594 75.7849C9.88712 75.3713 10.2279 74.9705 10.8622 74.6552L24.1517 68.0284C25.5336 67.3434 27.7761 67.3434 29.1634 68.0284L40.547 73.6641C41.1814 73.976 41.5221 74.378 41.5747 74.7903Z" fill="url(#paint23_linear)"/>
<path d="M36.4561 82.1783L26.5566 87.0805V85.1942L36.4561 80.292V82.1783Z" fill="url(#paint24_linear)"/>
<path d="M40.1643 79.3879C40.1643 79.9135 39.666 80.5858 39.0532 80.8896C38.4403 81.1934 37.9434 81.0132 37.9434 80.4876C37.9434 79.962 38.4403 79.2886 39.0532 78.986C39.666 78.6833 40.1643 78.8624 40.1643 79.3879Z" fill="#A177FF"/>
<path d="M13.8518 83.6494L13.1582 83.3064V79.6943L13.8518 80.0386V83.6494Z" fill="url(#paint25_linear)"/>
<path d="M15.1682 84.3182L14.4746 83.9763V80.3643L15.1682 80.7085V84.3182Z" fill="url(#paint26_linear)"/>
<path d="M16.4899 84.9852L15.7949 84.6421V81.0312L16.4899 81.3743V84.9852Z" fill="url(#paint27_linear)"/>
<path d="M17.8069 85.6539L17.1133 85.312V81.7012L17.8069 82.0442V85.6539Z" fill="url(#paint28_linear)"/>
<path d="M19.1259 86.3232L18.4336 85.9801V82.3682L19.1259 82.7124V86.3232Z" fill="url(#paint29_linear)"/>
<path d="M113.187 62.1032V55.645L112.583 55.6774C112.448 55.5792 112.302 55.4918 112.148 55.4163L100.763 49.7783C99.3786 49.0921 97.1347 49.0921 95.7515 49.7783L82.4647 56.4039C82.3545 56.4595 82.2483 56.5208 82.1469 56.5876L81.4263 56.628V63.0758C81.4256 63.0854 81.4256 63.0951 81.4263 63.1047V63.1428C81.4505 63.576 81.7926 64.0057 82.4607 64.3372L93.8457 69.9741C95.2303 70.6579 97.4741 70.6579 98.8573 69.9741L112.144 63.3472C112.804 63.0204 113.146 62.5964 113.176 62.1702H113.183L113.187 62.1032Z" fill="url(#paint30_linear)"/>
<path d="M112.148 56.8808L98.8628 63.5099C97.4769 64.1949 95.2343 64.1949 93.8511 63.5099L82.4634 57.8707C81.7146 57.5011 81.3738 57.0044 81.4371 56.5181C81.4883 56.1069 81.8291 55.7095 82.4634 55.3896L95.7556 48.7628C97.1375 48.0778 99.38 48.0778 100.767 48.7628L112.151 54.3985C112.785 54.7138 113.126 55.1158 113.177 55.5282C113.241 56.0133 112.897 56.5112 112.148 56.8808Z" fill="white"/>
<path d="M113.175 55.5282C113.124 55.9371 112.783 56.3368 112.149 56.6544L98.8632 63.2835C97.4772 63.9685 95.2347 63.9685 93.8515 63.2835L82.4638 57.6443C81.8294 57.3325 81.4887 56.9282 81.4375 56.5181C81.4887 56.1069 81.8294 55.7095 82.4638 55.3896L95.756 48.7628C97.1378 48.0778 99.3804 48.0778 100.768 48.7628L112.151 54.3985C112.783 54.7104 113.13 55.1158 113.175 55.5282Z" fill="url(#paint31_linear)"/>
<path d="M108.056 62.9166L98.1562 67.8176V65.9325L108.056 61.0303V62.9166Z" fill="url(#paint32_linear)"/>
<path d="M111.762 60.1262C111.762 60.6518 111.265 61.3241 110.652 61.6279C110.039 61.9317 109.541 61.7515 109.541 61.2259C109.541 60.7003 110.039 60.0269 110.652 59.7243C111.265 59.4216 111.762 59.6007 111.762 60.1262Z" fill="#A177FF"/>
<path d="M85.4514 64.3885L84.7578 64.0454V60.4346L85.4514 60.7776V64.3885Z" fill="url(#paint33_linear)"/>
<path d="M86.7698 65.0553L86.0762 64.7134V61.1025L86.7698 61.4456V65.0553Z" fill="url(#paint34_linear)"/>
<path d="M88.0882 65.7244L87.3945 65.3814V61.7705L88.0882 62.1136V65.7244Z" fill="url(#paint35_linear)"/>
<path d="M89.4085 66.3924L88.7148 66.0505V62.4385L89.4085 62.7827V66.3924Z" fill="url(#paint36_linear)"/>
<path d="M90.7268 67.0604L90.0332 66.7184V63.1064L90.7268 63.4495V67.0604Z" fill="url(#paint37_linear)"/>
<path style="mix-blend-mode:multiply" d="M113.177 55.5279C113.128 55.9368 112.786 56.3364 112.152 56.6552L100.695 62.3707H96.2051V48.5753C97.587 48.0832 99.5237 48.1468 100.767 48.7613L112.152 54.397C112.786 54.71 113.132 55.1155 113.177 55.5279Z" fill="url(#paint38_linear)"/>
<path d="M113.187 54.0568V47.6009L112.583 47.6332C112.448 47.535 112.302 47.4476 112.148 47.3722L100.763 41.7353C99.3786 41.0492 97.1347 41.0492 95.7515 41.7353L82.4647 48.3575C82.3542 48.4126 82.248 48.474 82.1469 48.5412L81.4263 48.5804V55.0282C81.4256 55.0378 81.4256 55.0475 81.4263 55.0571V55.0906C81.4506 55.5237 81.7927 55.9523 82.4607 56.2838L93.8457 61.9207C95.2303 62.6056 97.4741 62.6056 98.8574 61.9207L112.144 55.295C112.804 54.967 113.146 54.5442 113.176 54.118H113.183L113.187 54.0568Z" fill="url(#paint39_linear)"/>
<path d="M112.148 48.8366L98.8628 55.4657C97.4769 56.1507 95.2343 56.1507 93.8511 55.4657L82.4634 49.8276C81.7146 49.458 81.3738 48.9602 81.4371 48.475C81.4883 48.0627 81.8291 47.6665 82.4634 47.3453L95.7556 40.7197C97.1375 40.0335 99.38 40.0335 100.767 40.7197L112.151 46.3554C112.785 46.6696 113.126 47.0727 113.177 47.484C113.241 47.9702 112.897 48.4727 112.148 48.8366Z" fill="white"/>
<path d="M113.175 47.4839C113.124 47.8929 112.783 48.2925 112.149 48.6113L98.8632 55.2405C97.4772 55.9243 95.2347 55.9243 93.8515 55.2405L82.4638 49.6013C81.8294 49.2882 81.4887 48.8839 81.4375 48.475C81.4887 48.0627 81.8294 47.6665 82.4638 47.3453L95.756 40.7197C97.1378 40.0335 99.3804 40.0335 100.768 40.7197L112.151 46.3554C112.783 46.6696 113.13 47.0727 113.175 47.4839Z" fill="url(#paint40_linear)"/>
<path d="M108.056 54.8724L98.1562 59.7747V57.8884L108.056 52.9873V54.8724Z" fill="url(#paint41_linear)"/>
<path d="M111.762 52.0829C111.762 52.6085 111.265 53.2808 110.652 53.5846C110.039 53.8883 109.541 53.707 109.541 53.1814C109.541 52.6559 110.039 51.9836 110.652 51.6798C111.265 51.376 111.762 51.5562 111.762 52.0829Z" fill="#A177FF"/>
<path d="M85.4514 56.3445L84.7578 56.0015V52.3906L85.4514 52.7337V56.3445Z" fill="url(#paint42_linear)"/>
<path d="M86.7698 57.0127L86.0762 56.6708V53.0576L86.7698 53.4018V57.0127Z" fill="url(#paint43_linear)"/>
<path d="M88.0882 57.6816L87.3945 57.3386V53.7266L88.0882 54.0696V57.6816Z" fill="url(#paint44_linear)"/>
<path d="M89.4085 58.3483L88.7148 58.0064V54.3955L89.4085 54.7397V58.3483Z" fill="url(#paint45_linear)"/>
<path d="M90.7268 59.0174L90.0332 58.6743V55.0635L90.7268 55.4065V59.0174Z" fill="url(#paint46_linear)"/>
<path style="mix-blend-mode:multiply" d="M113.177 47.4845C113.128 47.8946 112.786 48.2931 112.152 48.6119L100.695 54.3285H96.2051V40.532C97.587 40.0399 99.5237 40.1046 100.767 40.7179L112.152 46.3548C112.786 46.6702 113.132 47.0733 113.177 47.4845Z" fill="url(#paint47_linear)"/>
<path d="M113.189 46.0135V39.5565L112.586 39.59C112.45 39.4918 112.305 39.4044 112.151 39.329L100.766 33.6874C99.381 33.0013 97.1371 33.0013 95.7539 33.6874L82.4671 40.3131C82.3585 40.3707 82.2542 40.434 82.1547 40.5025L81.4341 40.5418V46.9907C81.4334 47.0004 81.4334 47.01 81.4341 47.0196V47.0531C81.4583 47.4863 81.8004 47.9148 82.4685 48.2463L93.8535 53.8832C95.2381 54.5682 97.4819 54.5682 98.8651 53.8832L112.152 47.2564C112.812 46.9295 113.154 46.5068 113.184 46.0794H113.19L113.189 46.0135Z" fill="url(#paint48_linear)"/>
<path d="M112.148 40.7936L98.8628 47.4227C97.4769 48.1065 95.2343 48.1065 93.8511 47.4227L82.4634 41.7835C81.7146 41.4139 81.3738 40.9172 81.4371 40.4309C81.4883 40.0185 81.8291 39.6223 82.4634 39.3024L95.7556 32.6767C97.1375 31.9906 99.38 31.9906 100.767 32.6767L112.148 38.3078C112.783 38.6232 113.123 39.0251 113.175 39.4364C113.241 39.925 112.897 40.424 112.148 40.7936Z" fill="white"/>
<path d="M113.175 39.4398C113.124 39.8487 112.783 40.2542 112.149 40.5672L98.8632 47.2021C97.4772 47.8871 95.2347 47.8871 93.8515 47.2021L82.4638 41.5629C81.8294 41.2499 81.4887 40.8467 81.4375 40.4367C81.4887 40.0243 81.8294 39.6281 82.4638 39.3081L95.756 32.6767C97.1378 31.9906 99.3804 31.9906 100.768 32.6767L112.149 38.3078C112.783 38.6266 113.13 39.0286 113.175 39.4398Z" fill="url(#paint49_linear)"/>
<path d="M108.056 46.8275L98.1562 51.7298V49.8446L108.056 44.9424V46.8275Z" fill="url(#paint50_linear)"/>
<path d="M111.762 44.0393C111.762 44.5649 111.265 45.2372 110.652 45.5409C110.039 45.8447 109.541 45.6645 109.541 45.139C109.541 44.6134 110.039 43.94 110.652 43.6373C111.265 43.3347 111.762 43.5137 111.762 44.0393Z" fill="#A177FF"/>
<path d="M85.4514 48.2998L84.7578 47.9556V44.3447L85.4514 44.6889V48.2998Z" fill="url(#paint51_linear)"/>
<path d="M86.7698 48.9686L86.0762 48.6266V45.0146L86.7698 45.3577V48.9686Z" fill="url(#paint52_linear)"/>
<path d="M88.0882 49.6367L87.3945 49.2936V45.6816L88.0882 46.0259V49.6367Z" fill="url(#paint53_linear)"/>
<path d="M89.4085 50.3045L88.7148 49.9626V46.3506L89.4085 46.6948V50.3045Z" fill="url(#paint54_linear)"/>
<path d="M90.7268 50.9744L90.0332 50.6314V47.0205L90.7268 47.3647V50.9744Z" fill="url(#paint55_linear)"/>
<path d="M183.174 96.8058V90.3499L182.571 90.3834C182.436 90.2846 182.29 90.1972 182.136 90.1224L170.751 84.4843C169.367 83.7982 167.123 83.7982 165.739 84.4843L152.459 91.1088C152.349 91.1648 152.244 91.2261 152.142 91.2925L151.42 91.3318V97.7807C151.42 97.7903 151.42 97.7999 151.42 97.8096V97.8431C151.443 98.2762 151.787 98.7059 152.453 99.0374L163.838 104.673C165.223 105.359 167.467 105.359 168.851 104.673L182.137 98.0475C182.797 97.7206 183.139 97.2979 183.17 96.8705L183.174 96.8058Z" fill="url(#paint56_linear)"/>
<path d="M182.138 91.5849L168.853 98.214C167.468 98.899 165.225 98.899 163.843 98.214L152.454 92.5748C151.705 92.2064 151.364 91.7085 151.427 91.2222C151.479 90.8098 151.821 90.4136 152.454 90.0937L165.743 83.4669C167.126 82.7819 169.369 82.7819 170.755 83.4669L182.138 89.1026C182.773 89.4168 183.114 89.8199 183.166 90.2323C183.231 90.7174 182.889 91.2118 182.138 91.5849Z" fill="white"/>
<path d="M183.17 90.2323C183.118 90.64 182.777 91.0409 182.143 91.3585L168.857 97.9876C167.473 98.6726 165.229 98.6726 163.847 97.9876L152.458 92.3484C151.825 92.0354 151.483 91.6323 151.432 91.2222C151.483 90.8098 151.825 90.4136 152.458 90.0937L165.747 83.4669C167.131 82.7819 169.373 82.7819 170.759 83.4669L182.143 89.1026C182.773 89.4168 183.114 89.8257 183.17 90.2323Z" fill="url(#paint57_linear)"/>
<path d="M178.042 97.6197L168.143 102.521V100.636L178.042 95.7334V97.6197Z" fill="url(#paint58_linear)"/>
<path d="M181.75 94.8274C181.75 95.353 181.252 96.0252 180.639 96.329C180.026 96.6328 179.529 96.4526 179.529 95.9271C179.529 95.4015 180.026 94.7281 180.639 94.4254C181.252 94.1228 181.75 94.3018 181.75 94.8274Z" fill="#A177FF"/>
<path d="M155.438 99.0908L154.744 98.7466V95.1357L155.438 95.48V99.0908Z" fill="url(#paint59_linear)"/>
<path d="M156.757 99.7576L156.062 99.4157V95.8037L156.757 96.1468V99.7576Z" fill="url(#paint60_linear)"/>
<path d="M158.076 100.428L157.383 100.086V96.4727L158.076 96.8169V100.428Z" fill="url(#paint61_linear)"/>
<path d="M159.395 101.096L158.703 100.754V97.1416L159.395 97.4858V101.096Z" fill="url(#paint62_linear)"/>
<path d="M160.716 101.763L160.023 101.422V97.8096L160.716 98.1538V101.763Z" fill="url(#paint63_linear)"/>
<path style="mix-blend-mode:multiply" d="M183.17 90.232C183.12 90.6409 182.778 91.0405 182.143 91.3594L170.695 97.0748H166.199V83.2794C167.581 82.7873 169.519 82.8509 170.762 83.4654L182.146 89.1023C182.774 89.4165 183.116 89.8254 183.17 90.232Z" fill="url(#paint64_linear)"/>
<path d="M183.174 88.7609V82.305L182.571 82.3385C182.435 82.2397 182.29 82.1519 182.136 82.0763L170.751 76.4394C169.367 75.7533 167.123 75.7533 165.739 76.4394L152.459 83.0651C152.349 83.1202 152.243 83.1812 152.142 83.2476L151.42 83.288V89.7358C151.42 89.7458 151.42 89.7558 151.42 89.7658V89.7982C151.443 90.2313 151.787 90.6599 152.453 90.9925L163.838 96.6283C165.223 97.3132 167.467 97.3132 168.851 96.6283L182.137 90.0026C182.797 89.6746 183.139 89.2518 183.17 88.8244L183.174 88.7609Z" fill="url(#paint65_linear)"/>
<path d="M182.138 83.5414L168.853 90.1728C167.468 90.8578 165.225 90.8578 163.843 90.1728L152.454 84.5336C151.705 84.164 151.364 83.6673 151.427 83.1822C151.479 82.7698 151.821 82.3736 152.454 82.0525L165.743 75.4268C167.126 74.7418 169.369 74.7418 170.755 75.4268L182.138 81.0614C182.773 81.3767 183.114 81.7799 183.166 82.1911C183.231 82.6751 182.889 83.1718 182.138 83.5414Z" fill="white"/>
<path d="M183.169 82.1875C183.116 82.5964 182.775 82.9961 182.141 83.3138L168.851 89.9406C167.467 90.6256 165.223 90.6256 163.841 89.9406L152.452 84.3025C151.819 83.9895 151.477 83.5852 151.426 83.1763C151.477 82.7639 151.819 82.3677 152.452 82.0466L165.742 75.421C167.125 74.736 169.367 74.736 170.753 75.421L182.137 81.0555C182.771 81.3732 183.112 81.7763 183.169 82.1875Z" fill="url(#paint66_linear)"/>
<path d="M178.042 89.5767L168.143 94.479V92.5927L178.042 87.6904V89.5767Z" fill="url(#paint67_linear)"/>
<path d="M181.75 86.7858C181.75 87.3125 181.252 87.9837 180.639 88.2874C180.026 88.5912 179.529 88.4099 179.529 87.8843C179.529 87.3587 180.026 86.6865 180.639 86.3827C181.252 86.0789 181.75 86.2602 181.75 86.7858Z" fill="#A177FF"/>
<path d="M155.438 91.0477L154.744 90.7046V87.0938L155.438 87.4368V91.0477Z" fill="url(#paint68_linear)"/>
<path d="M156.757 91.7168L156.062 91.3737V87.7617L156.757 88.1059V91.7168Z" fill="url(#paint69_linear)"/>
<path d="M158.076 92.3844L157.383 92.0425V88.4316L158.076 88.7736V92.3844Z" fill="url(#paint70_linear)"/>
<path d="M159.395 93.0524L158.703 92.7116V89.0996L159.395 89.4427V93.0524Z" fill="url(#paint71_linear)"/>
<path d="M160.716 93.7215L160.023 93.3784V89.7676L160.716 90.1106V93.7215Z" fill="url(#paint72_linear)"/>
<path style="mix-blend-mode:multiply" d="M183.17 82.1888C183.12 82.5977 182.778 82.9974 182.143 83.315L170.695 89.0316H166.199V75.2351C167.581 74.743 169.519 74.8077 170.762 75.4211L182.146 81.0579C182.774 81.3733 183.116 81.7764 183.17 82.1888Z" fill="url(#paint73_linear)"/>
<path d="M183.174 80.7179V74.262L182.571 74.2955C182.435 74.1971 182.289 74.1093 182.136 74.0333L170.751 68.3964C169.367 67.7103 167.123 67.7103 165.739 68.3964L152.459 75.0209C152.349 75.0765 152.243 75.1378 152.142 75.2046L151.42 75.2439V81.6928C151.42 81.7024 151.42 81.7121 151.42 81.7217V81.7552C151.443 82.1872 151.787 82.6169 152.453 82.9484L163.838 88.5853C165.223 89.2691 167.467 89.2691 168.851 88.5853L182.137 81.9585C182.797 81.6316 183.139 81.2088 183.17 80.7814L183.174 80.7179Z" fill="url(#paint74_linear)"/>
<path d="M182.138 75.5029L168.853 82.1309C167.468 82.817 165.225 82.817 163.843 82.1309L152.454 76.4928C151.705 76.1232 151.364 75.6265 151.427 75.1402C151.479 74.7278 151.821 74.3316 152.454 74.0116L165.743 67.3848C167.126 66.6998 169.369 66.6998 170.755 67.3848L182.138 73.0217C182.773 73.3359 183.114 73.7379 183.166 74.1503C183.231 74.6308 182.889 75.1275 182.138 75.5029Z" fill="white"/>
<path d="M183.17 74.1454C183.118 74.5531 182.777 74.9539 182.143 75.2716L168.857 81.9007C167.473 82.5857 165.229 82.5857 163.847 81.9007L152.458 76.2615C151.825 75.9485 151.483 75.5453 151.432 75.1353C151.483 74.7229 151.825 74.3267 152.458 74.0068L165.747 67.3799C167.131 66.695 169.373 66.695 170.759 67.3799L182.143 73.0168C182.773 73.331 183.114 73.733 183.17 74.1454Z" fill="url(#paint75_linear)"/>
<path d="M178.042 81.5337L168.143 86.4348V84.5497L178.042 79.6475V81.5337Z" fill="url(#paint76_linear)"/>
<path d="M181.75 78.7424C181.75 79.268 181.252 79.9403 180.639 80.2441C180.026 80.5479 179.529 80.3677 179.529 79.8421C179.529 79.3165 180.026 78.6431 180.639 78.3405C181.252 78.0378 181.75 78.2169 181.75 78.7424Z" fill="#A177FF"/>
<path d="M155.438 83.0057L154.744 82.6626V79.0518L155.438 79.3948V83.0057Z" fill="url(#paint77_linear)"/>
<path d="M156.757 83.6728L156.062 83.3309V79.7178L156.757 80.0631V83.6728Z" fill="url(#paint78_linear)"/>
<path d="M158.076 84.3418L157.383 83.9987V80.3867L158.076 80.7309V84.3418Z" fill="url(#paint79_linear)"/>
<path d="M159.395 85.0086L158.703 84.6667V81.0547L159.395 81.3989V85.0086Z" fill="url(#paint80_linear)"/>
<path d="M160.716 85.6775L160.023 85.3345V81.7236L160.716 82.0679V85.6775Z" fill="url(#paint81_linear)"/>
<path d="M125.128 96.4095V84.7534L124.04 84.8135C123.796 84.6357 123.533 84.4776 123.255 84.341L102.698 74.1611C100.198 72.9229 96.1467 72.9229 93.6483 74.1611L69.658 86.1291C69.4584 86.2277 69.2667 86.3376 69.0843 86.4583L67.7832 86.5311V98.1734C67.7832 98.1907 67.7832 98.2092 67.7832 98.2253V98.2854C67.825 99.0686 68.4445 99.8425 69.65 100.442L90.2151 110.617C92.7149 111.853 96.7649 111.853 99.2647 110.617L123.255 98.6504C124.446 98.0602 125.062 97.2966 125.119 96.525H125.128V96.4095Z" fill="url(#paint82_linear)"/>
<path d="M123.255 86.9864L99.2678 98.9567C96.7653 100.193 92.7153 100.193 90.2182 98.9567L69.6557 88.7756C68.3089 88.1068 67.688 87.2093 67.8024 86.3326C67.894 85.5887 68.5109 84.8633 69.6557 84.2938L93.65 72.3293C96.1471 71.0934 100.197 71.0934 102.7 72.3293L123.255 82.5058C124.4 83.0741 125.016 83.7995 125.11 84.5445C125.226 85.4224 124.609 86.3187 123.255 86.9864Z" fill="white"/>
<path d="M125.108 84.5445C125.014 85.2826 124.399 86.0138 123.254 86.5775L99.2661 98.5478C96.7636 99.7849 92.7136 99.7849 90.2166 98.5478L69.6541 88.3667C68.5092 87.8019 67.8924 87.0718 67.8008 86.3326C67.8924 85.5887 68.5092 84.8633 69.6541 84.2938L93.6484 72.3293C96.1454 71.0934 100.195 71.0934 102.698 72.3293L123.254 82.5057C124.399 83.074 125.014 83.7995 125.108 84.5445Z" fill="url(#paint83_linear)"/>
<path d="M114.882 85.8127C114.884 85.9792 114.872 86.1455 114.846 86.3105C114.287 90.6398 106.408 93.9677 96.4546 93.9677C86.5013 93.9677 78.6209 90.6398 78.0606 86.3105C78.0355 86.1455 78.0238 85.9791 78.0256 85.8127C78.0256 81.242 86.1188 77.6611 96.4546 77.6611C106.79 77.6611 114.882 81.242 114.882 85.8127Z" fill="#5ABAB7"/>
<path style="mix-blend-mode:multiply" d="M96.4541 41.5918C84.1074 41.5918 74.3454 45.7132 73.6504 51.081L73.6585 51.1364L73.6692 51.1895L78.0533 86.3046H78.0627V86.3497L78.1718 86.8683L78.1826 86.9041C79.3584 90.9366 86.956 93.9618 96.4487 93.9618C102.359 93.9618 107.536 92.7893 110.887 90.9285C110.887 90.9285 110.896 90.9285 110.903 90.9192C112.762 89.8796 114.053 88.6391 114.591 87.2668C114.716 86.955 114.8 86.6323 114.843 86.3046H114.851L119.255 51.074C118.567 45.7132 108.798 41.5918 96.4541 41.5918Z" fill="url(#paint84_linear)"/>
<path d="M114.847 86.3111C114.806 86.6389 114.722 86.9616 114.597 87.2733C114.058 88.6456 112.768 89.8908 110.907 90.9257C110.907 90.9257 110.897 90.9257 110.893 90.935C107.542 92.7958 102.364 93.9683 96.4557 93.9683C86.9603 93.9683 79.3627 90.943 78.1882 86.9106L78.1775 86.8748L78.0684 86.3561V86.3111C78.6287 81.9818 86.5024 78.6562 96.4624 78.6562C106.422 78.6562 114.288 81.9818 114.847 86.3111Z" fill="url(#paint85_linear)"/>
<path d="M111.857 66.6984L111.759 67.1604C111.759 67.1916 111.085 70.3681 110.299 73.6093C109.834 75.5153 109.419 77.0747 109.066 78.2378C108.441 80.2824 108.123 80.7536 107.866 80.9477C107.502 81.2376 106.597 81.6893 105.473 82.1571C104.705 82.4759 103.839 82.8028 102.969 83.0927C101.942 83.4505 100.884 83.7387 99.8052 83.9544C98.5068 84.1912 97.7027 84.1577 97.0145 83.817C96.3262 83.4762 95.5195 82.7138 94.2211 81.1868C93.3443 80.1599 92.2533 78.7819 91.06 77.1971C88.928 74.3671 86.7743 71.2934 86.1588 70.1995C85.9096 69.7525 85.5877 68.967 84.9628 66.3045C84.6099 64.789 84.1951 62.8207 83.7291 60.4528C83.4099 58.8183 83.1082 57.2185 82.8644 55.8855L79.5605 52.9977L79.9107 52.8291L82.2785 51.6832C82.336 51.6509 82.4027 51.6328 82.4714 51.631C82.5401 51.6292 82.608 51.6437 82.6678 51.6728L83.2563 51.89C89.957 54.3423 96.3303 54.1228 96.3936 54.1228L96.7061 54.1112C96.8771 54.102 97.1532 54.2383 97.3243 54.4173L97.6367 54.7385C97.7027 54.8043 104.068 61.3318 110.777 65.5144L111.363 65.8817C111.69 66.0781 111.908 66.4454 111.857 66.6984Z" fill="#249899"/>
<path d="M109.292 68.0498L109.198 68.5049C109.198 68.5245 108.536 71.6722 107.738 74.9608C107.263 76.9036 106.848 78.4642 106.499 79.5962C106.007 81.2052 105.702 81.8486 105.473 82.1513C104.705 82.4701 103.839 82.797 102.969 83.0869C101.942 83.4447 100.884 83.7328 99.8052 83.9486C98.5068 84.1854 97.7027 84.1519 97.0145 83.8111C96.3262 83.4704 95.5195 82.708 94.2211 81.181C93.3443 80.1541 92.2534 78.776 91.06 77.1913C88.928 74.3613 86.7743 71.2875 86.1588 70.1936C85.9096 69.7466 85.5877 68.9612 84.9628 66.2987C84.6099 64.7832 84.1951 62.8149 83.7291 60.4469C83.4099 58.8124 83.1082 57.2126 82.8644 55.8796L79.5605 52.9919L79.9107 52.8232C79.9404 52.8299 79.9696 52.838 79.9983 52.8475L80.5869 53.0635C86.2329 55.1311 91.6648 55.2882 93.1962 55.2882C93.4803 55.2882 93.6366 55.2813 93.6473 55.2813L93.9571 55.2686C94.24 55.2686 94.5497 55.4546 94.7248 55.6348L95.0373 55.9536C95.7175 56.6466 101.785 62.7363 108.145 66.7041L108.731 67.0726C109.109 67.3105 109.358 67.7402 109.292 68.0498Z" fill="#249899"/>
<path d="M109.118 68.0231L109.022 68.4852C109.022 68.5163 108.348 71.6929 107.563 74.9329C107.097 76.84 106.682 78.3982 106.327 79.5626C105.702 81.6083 105.384 82.0761 105.129 82.2713C104.518 82.7599 102.366 83.7024 100.234 84.4186C99.2064 84.7755 98.1481 85.0629 97.0685 85.278C95.7702 85.516 94.9634 85.4801 94.2778 85.1405C93.5923 84.8009 92.7815 84.0363 91.4818 82.5116C90.6063 81.4847 89.514 80.1055 88.322 78.5207C86.1953 75.6861 84.0404 72.6146 83.4208 71.5173C83.169 71.0714 82.8498 70.2871 82.2262 67.6234C81.8719 66.1068 81.4557 64.1385 80.9897 61.7706C80.2045 57.752 79.5378 53.9159 79.5311 53.8766C79.5311 53.8766 79.488 53.6306 79.4355 53.3256C79.3829 53.0207 79.6038 52.8705 79.9298 52.9906L80.517 53.2055C87.2203 55.6601 93.5923 55.4418 93.6556 55.4406L93.9667 55.4267C94.1378 55.4198 94.4166 55.5584 94.5876 55.734L94.8974 56.0551C94.9634 56.1221 101.333 62.6473 108.039 66.8322L108.626 67.1995C108.949 67.4017 109.17 67.7701 109.118 68.0231Z" fill="#1C8E92"/>
<path d="M106.551 68.4816C106.354 69.4056 105.811 71.9168 105.184 74.5019C104.716 76.4079 104.311 77.9326 103.971 79.0276C103.632 80.1227 103.433 80.6113 103.333 80.8192C102.794 81.1334 101.249 81.8287 99.3409 82.4721C98.5821 82.7308 97.8069 82.9525 97.0189 83.1363C96.8573 83.1733 96.7051 83.2033 96.5596 83.231C96.2606 83.2929 95.9552 83.3289 95.6478 83.3385C95.5946 83.3402 95.5413 83.3372 95.4889 83.3292C95.3327 83.2507 94.8249 82.8984 93.4444 81.2754C92.5797 80.2624 91.5143 78.9179 90.3627 77.3839C88.061 74.3345 86.104 71.4929 85.6083 70.6116C85.3699 70.1899 85.044 69.0811 84.6063 67.2121C84.2574 65.7255 83.8466 63.7768 83.3847 61.4216C82.9927 59.4244 82.6331 57.4758 82.3691 56.0215C82.6237 56.0943 82.8769 56.1601 83.1274 56.2225C86.3871 57.0519 89.7644 57.4926 93.1642 57.5324C94.2592 58.6274 100.242 64.5288 106.551 68.4816Z" fill="#0B7478"/>
<path d="M106.548 68.4808C106.351 69.4048 105.808 71.916 105.18 74.5012C104.713 76.4071 104.308 77.9318 103.968 79.0268C103.629 80.1219 103.43 80.6105 103.33 80.8184C102.791 81.1326 101.246 81.828 99.3378 82.4714C98.579 82.73 97.8037 82.9518 97.0158 83.1355C96.7939 83.1743 96.5686 83.1967 96.3423 83.2025C96.2891 83.2045 96.2357 83.201 96.1834 83.1921C96.0285 83.1147 95.5208 82.7624 94.1389 81.1407C93.2755 80.1265 92.2102 78.782 91.0573 77.2468C88.7568 74.1985 86.7998 71.3558 86.3029 70.4756C86.0672 70.0563 85.7385 68.944 85.3035 67.0762C84.956 65.5907 84.5425 63.642 84.0805 61.2868C83.7182 59.4386 83.3829 57.6344 83.127 56.2217C86.3867 57.0511 89.7639 57.4918 93.1638 57.5316C94.2561 58.6266 100.239 64.528 106.548 68.4808Z" fill="url(#paint86_linear)"/>
<path d="M102.962 70.6891C102.962 70.9456 102.855 71.1512 102.654 71.2482L102.644 71.2551L102.626 71.2632L101.964 71.5913L101.559 71.7865L101.24 71.4688L93.2399 72.5084C92.9772 72.527 92.7147 72.4701 92.4938 72.3467C92.1202 72.1504 91.8063 71.8808 91.5779 71.5601L90.9678 70.7146L88.1798 66.8635C88.0961 66.7458 88.0236 66.6226 87.963 66.495L87.0996 65.8909L87.4713 65.7026L88.1125 65.3826C88.1219 65.3826 88.13 65.3734 88.1407 65.3699L88.1515 65.363C88.172 65.3535 88.1932 65.345 88.2148 65.3376C88.7185 65.1689 89.5253 65.5813 90.0129 66.2536L92.6392 69.8852L100.943 68.8029C101.51 68.7312 102.306 69.2303 102.718 69.9233C102.867 70.159 102.951 70.4211 102.962 70.6891V70.6891Z" fill="#A177FF"/>
<path d="M92.6424 69.8898L91.9555 70.2363L91.5286 70.4489L90.9736 70.7238L88.1857 66.8727C88.1019 66.7551 88.0294 66.6318 87.9688 66.5042L87.1055 65.9001L87.4772 65.7118L88.1183 65.3918C88.1277 65.3918 88.1358 65.3826 88.1466 65.3791L88.1574 65.3722C88.1763 65.3597 88.1961 65.3481 88.2166 65.3376C88.7204 65.1689 89.5271 65.5813 90.0147 66.2536L92.6424 69.8898Z" fill="#6F45CC"/>
<path d="M101.964 71.5909L101.56 71.7861L101.24 71.4684L93.2399 72.508C92.9772 72.5266 92.7147 72.4697 92.4938 72.3463C92.1202 72.15 91.8063 71.8804 91.5779 71.5597L90.9678 70.7141L88.1798 66.863C88.0961 66.7454 88.0236 66.6222 87.963 66.4946L87.0996 65.8904L87.4713 65.7021C88.0101 65.7564 88.6458 66.1642 89.0526 66.7221L91.6116 70.2694L91.9429 70.2267L99.7978 69.2067C99.8446 69.2003 99.8919 69.1972 99.9392 69.1975C100.567 69.1975 101.352 69.7184 101.763 70.408C102.03 70.8447 102.1 71.2778 101.964 71.5909Z" fill="#8D65E5"/>
<path d="M91.3862 72.9009C91.0122 72.7064 90.6985 72.4374 90.4717 72.1166L87.0749 67.4165C86.586 66.7419 86.5995 66.0581 87.1045 65.8895C87.6096 65.7208 88.415 66.1309 88.9012 66.8055L91.5303 70.4394L99.831 69.3571C100.399 69.282 101.193 69.7845 101.606 70.4752C102.02 71.166 101.897 71.7863 101.329 71.8613L92.1337 73.0603C91.8708 73.0797 91.6079 73.0236 91.3862 72.9009V72.9009Z" fill="#8D65E5"/>
<path d="M173.774 68.1982V77.1988C173.748 77.4691 173.505 77.7486 173.061 77.9704L171.592 78.6969C170.726 79.1255 169.418 79.1717 168.669 78.802L159.558 74.2902C159.217 74.1216 159.053 73.8952 159.053 73.6595V64.7803L173.774 68.1982Z" fill="url(#paint87_linear)"/>
<path d="M173.773 68.1983V68.5818C173.611 68.7916 173.391 68.9638 173.132 69.0831L171.663 69.8108C171.133 70.0578 170.538 70.1854 169.935 70.1816C169.467 70.1929 169.003 70.1006 168.588 69.9136L159.475 65.4087C159.305 65.3276 159.158 65.2142 159.047 65.0772V64.7861L173.773 68.1983Z" fill="url(#paint88_linear)"/>
<path d="M173.769 68.2036C173.741 68.4728 173.5 68.7512 173.057 68.9718L172.769 69.1139L171.586 69.6995C170.721 70.128 169.415 70.1731 168.666 69.8023L159.553 65.2974C159.238 65.1415 159.075 64.937 159.051 64.7199C159.078 64.4519 159.32 64.1735 159.763 63.9529L161.233 63.2251C162.099 62.7966 163.405 62.7492 164.154 63.12L164.962 63.5185L167.809 64.9278L173.268 67.633C173.315 67.6554 173.36 67.6809 173.403 67.7093C173.502 67.7645 173.585 67.8372 173.649 67.9224C173.712 68.0077 173.753 68.1036 173.769 68.2036V68.2036Z" fill="url(#paint89_linear)"/>
<path d="M164.845 74.9182C164.765 74.9168 164.687 74.8972 164.619 74.8616L163.789 74.4504C163.668 74.3837 163.567 74.2931 163.495 74.1862C163.423 74.0793 163.382 73.9591 163.376 73.8358V72.7004C163.358 72.5154 163.28 72.3383 163.151 72.1898C162.691 71.6851 162.418 71.0936 162.418 70.6062C162.418 70.0286 162.8 69.6602 163.393 69.6602C163.712 69.6705 164.022 69.7522 164.293 69.897C165.244 70.3671 166.018 71.4182 166.018 72.2395C166.018 72.6553 165.826 72.9626 165.479 73.1058C165.411 73.1324 165.186 73.2363 165.186 73.3911V74.5786C165.188 74.6617 165.158 74.7432 165.1 74.8096C165.069 74.8422 165.031 74.8684 164.987 74.8862C164.943 74.904 164.895 74.913 164.846 74.9124L164.845 74.9182Z" fill="url(#paint90_linear)"/>
<path d="M164.365 70.0075C163.455 69.5559 162.717 69.8238 162.717 70.6058C162.717 71.0841 162.994 71.6454 163.419 72.1075C163.568 72.2792 163.657 72.484 163.674 72.6977V73.8332C163.681 73.9341 163.715 74.0322 163.774 74.1196C163.833 74.2071 163.915 74.2815 164.014 74.3368L164.842 74.7469C165.029 74.8393 165.182 74.7642 165.182 74.5782V73.3885C165.182 73.2025 165.366 73.0639 165.561 72.9854C165.842 72.8698 166.015 72.6146 166.015 72.2368C166.015 71.4595 165.276 70.4591 164.365 70.0075Z" fill="#262E54"/>
<g style="mix-blend-mode:multiply">
<path d="M167.809 64.9249H162.303V63.5156H164.963L167.809 64.9249Z" fill="#E6E7E8"/>
</g>
<g style="mix-blend-mode:multiply">
<path d="M173.768 68.2039C173.74 68.473 173.499 68.7514 173.056 68.972L172.768 69.1141H170.785V67.7061H173.401C173.5 67.7615 173.584 67.8347 173.648 67.9206C173.711 68.0065 173.752 68.1031 173.768 68.2039V68.2039Z" fill="#E6E7E8"/>
</g>
<path d="M170.75 69.1078C170.144 69.1078 169.653 68.8167 169.653 68.2992V64.5636C169.653 63.1463 168.218 61.2392 166.521 60.4053L165.432 59.8658C164.596 59.4511 164.001 59.4523 163.745 59.5782C163.442 59.7284 163.396 60.1477 163.396 60.3868V64.1131C163.396 64.6329 162.906 64.9217 162.301 64.9217C161.696 64.9217 161.203 64.6306 161.203 64.1131V60.3799C161.203 59.271 161.716 58.4058 162.65 57.9449C163.698 57.4251 165.112 57.5291 166.529 58.2314L167.617 58.7696C169.987 59.9444 171.845 62.4891 171.845 64.5636V68.2969C171.845 68.8167 171.354 69.1078 170.75 69.1078Z" fill="#A177FF"/>
<path d="M30.8525 70.7901V77.5452C30.8607 77.6406 30.8436 77.7364 30.8026 77.8254C30.7615 77.9145 30.6976 77.9944 30.6154 78.0592V78.0592H30.6074L30.5508 78.0915L30.1589 78.3075L30.0134 78.2729C29.8585 78.2729 29.9043 78.1019 29.7184 78.0095L18.0008 72.234C17.9204 72.194 17.8435 72.1493 17.7704 72.1C17.7247 72.0677 17.6789 72.033 17.6358 71.9984C17.47 71.8643 17.3255 71.712 17.2061 71.5456C16.9972 71.2729 16.8785 70.9567 16.8627 70.6307V63.8896C16.8627 63.7509 16.7361 63.7232 16.7886 63.6285L16.7441 63.5661L17.1159 63.3628C17.1194 63.3621 17.1231 63.3621 17.1266 63.3628C17.1368 63.3559 17.1476 63.3497 17.159 63.3443L17.1846 63.3305C17.2684 63.2952 17.3606 63.277 17.4539 63.2773C17.645 63.2839 17.8308 63.3333 17.9927 63.4206L22.0979 65.4466L22.5424 65.6661L29.7117 69.1915C30.3407 69.4953 30.8525 70.2149 30.8525 70.7901Z" fill="#8255E6"/>
<path d="M30.615 71.0071V77.7621C30.615 78.0763 30.4668 78.1456 30.3725 78.1976C30.219 78.283 30.3416 78.2149 30.3402 78.216L30.153 78.3189L30.0075 78.2842C29.8526 78.2842 29.8984 78.1133 29.7126 78.0208L17.9949 72.2453C17.9146 72.2053 17.8376 72.1606 17.7646 72.1113C17.7188 72.079 17.673 72.0443 17.6299 72.0097C17.4641 71.8756 17.3197 71.7234 17.2003 71.5569C16.9913 71.2842 16.8726 70.968 16.8568 70.642V63.8905C16.8568 63.7519 16.7302 63.7241 16.7827 63.6294L16.7383 63.567L16.9107 63.4712C16.9107 63.4712 17.211 63.3002 17.6824 63.5174C18.7599 64.0141 21.789 65.5411 21.789 65.5411L22.2321 65.7617L29.4001 69.2871C30.0695 69.6198 30.615 70.3914 30.615 71.0071Z" fill="#C5ABFF"/>
<path d="M16.4629 64.1076V70.8615C16.4789 71.188 16.5981 71.5046 16.8077 71.7775C16.9258 71.9441 17.0699 72.096 17.236 72.2292C17.2804 72.265 17.3249 72.2985 17.3707 72.3297C17.4433 72.38 17.5203 72.4256 17.601 72.466L29.3187 78.2415C29.9463 78.5545 30.4568 78.3408 30.4568 77.7667V71.0117C30.4568 70.4341 29.9463 69.7191 29.3187 69.4084L22.152 65.8772L21.7089 65.6578L17.6023 63.6317C16.9666 63.3199 16.4629 63.5335 16.4629 64.1076Z" fill="#A177FF"/>
<path d="M26.7031 73.1544C26.7031 73.4882 27.021 73.9156 27.4089 74.1085L28.318 74.559C28.7072 74.7519 29.0238 74.6375 29.0238 74.3014V73.524C29.0238 73.189 28.7072 72.7616 28.318 72.5687L27.4089 72.1194C27.021 71.9265 26.7031 72.0397 26.7031 72.3747V73.1544Z" fill="#F1F2F2"/>
<path d="M28.7056 71.6132L19.547 67.0794C19.4546 67.0278 19.3778 66.9582 19.3228 66.8763C19.2678 66.7944 19.2362 66.7025 19.2305 66.6081V66.3875C19.2305 66.2143 19.3719 66.1438 19.547 66.2304L28.7056 70.7653C28.7977 70.8166 28.8743 70.8858 28.9293 70.9673C28.9843 71.0488 29.0161 71.1403 29.0221 71.2343V71.4596C29.0221 71.6305 28.8807 71.701 28.7056 71.6132Z" fill="#F1F2F2"/>
<path d="M28.6982 76.9039L19.3779 72.2835C19.2841 72.2309 19.2059 72.1601 19.1498 72.0768C19.0936 71.9936 19.0611 71.9002 19.0547 71.8042V71.5801C19.0547 71.4022 19.2001 71.3317 19.3779 71.4195L28.6982 76.0399C28.792 76.0926 28.8701 76.1634 28.9262 76.2467C28.9823 76.3299 29.015 76.4233 29.0214 76.5193V76.7503C29.0214 76.9201 28.876 76.9917 28.6982 76.9039Z" fill="#F1F2F2"/>
<path d="M24.9591 71.4729L18.0282 68.0399C17.9582 68.0011 17.8998 67.9486 17.858 67.8868C17.8161 67.825 17.7918 67.7555 17.7871 67.6841V67.5166C17.7871 67.385 17.8949 67.3307 18.0282 67.4011L24.9591 70.8329C25.0294 70.8718 25.0879 70.9244 25.1298 70.9865C25.1717 71.0485 25.1959 71.1182 25.2002 71.1899V71.3562C25.2002 71.4844 25.0925 71.5376 24.9591 71.4729Z" fill="#F1F2F2"/>
<path d="M24.9591 72.8054L18.0282 69.3724C17.9581 69.3337 17.8997 69.2812 17.8578 69.2194C17.8159 69.1576 17.7917 69.0881 17.7871 69.0167V68.8503C17.7871 68.7175 17.8949 68.6655 18.0282 68.7348L24.9591 72.1678C25.0292 72.2066 25.0876 72.259 25.1295 72.3208C25.1714 72.3827 25.1957 72.4522 25.2002 72.5236V72.6922C25.2002 72.8181 25.0925 72.8713 24.9591 72.8054Z" fill="#F1F2F2"/>
<path style="mix-blend-mode:multiply" d="M112.75 39.9978C112.548 40.234 112.288 40.4289 111.988 40.5685L106.103 43.5059H100.743L92.4219 39.0957L112.427 39.083L112.75 39.9978Z" fill="url(#paint91_linear)"/>
<path d="M101.623 27.7272V42.9283C101.632 42.9967 101.619 43.0658 101.585 43.1282C101.551 43.1905 101.498 43.2436 101.431 43.2818V43.2818L101.188 43.3973L100.95 43.5128L100.898 43.1963L93.0696 39.3198C92.8864 39.2174 92.734 39.0794 92.6247 38.9171C92.5154 38.7547 92.4523 38.5725 92.4406 38.3853V23.3597L92.2655 23.2604L92.1523 23.0663L92.3786 22.9508L92.617 22.8353C92.6229 22.8329 92.6283 22.8298 92.6332 22.8261V22.8261C92.7035 22.8022 92.7796 22.7938 92.8547 22.8017C92.9297 22.8096 93.0013 22.8334 93.0628 22.8711L100.981 26.7915C101.167 26.8927 101.322 27.0303 101.434 27.193C101.545 27.3557 101.61 27.5387 101.623 27.7272V27.7272Z" fill="url(#paint92_linear)"/>
<path d="M101.236 27.9666V43.1701C101.238 43.249 101.221 43.3274 101.188 43.4011L100.95 43.5166L100.898 43.2001L93.0696 39.3236C92.8864 39.2212 92.734 39.0832 92.6247 38.9209C92.5154 38.7585 92.4523 38.5763 92.4406 38.3891V23.3601L92.2655 23.2607L92.1523 23.0667L92.3786 22.9512C92.4684 22.9635 92.5548 22.9901 92.6332 23.0297L100.551 26.9571C100.751 27.0662 100.918 27.2148 101.037 27.3904C101.156 27.5661 101.224 27.7637 101.236 27.9666Z" fill="white"/>
<path d="M101.131 27.9662V43.1697C101.147 43.2369 101.137 43.3067 101.104 43.3692C101.071 43.4318 101.016 43.4838 100.947 43.5181C100.878 43.5524 100.798 43.5672 100.718 43.5605C100.638 43.5537 100.563 43.5257 100.503 43.4804L92.5837 39.5588C92.401 39.4564 92.249 39.3186 92.1399 39.1564C92.0309 38.9943 91.9679 38.8124 91.9561 38.6255V23.4221C91.9465 23.3526 91.9602 23.2823 91.9955 23.2194C92.0308 23.1564 92.0863 23.1033 92.1554 23.0663C92.2255 23.0426 92.3013 23.0342 92.376 23.0418C92.4508 23.0495 92.5222 23.073 92.5837 23.1102L100.503 27.0375C100.685 27.1394 100.837 27.2765 100.946 27.4378C101.055 27.5991 101.118 27.7801 101.131 27.9662V27.9662Z" fill="url(#paint93_linear)"/>
<path d="M100.701 28.5585V41.5268C100.701 41.7683 100.503 41.8664 100.258 41.7452L92.8708 38.087C92.7417 38.0152 92.6342 37.9182 92.5572 37.804C92.4801 37.6898 92.4358 37.5615 92.4277 37.4297V24.4926C92.4277 24.25 92.6271 24.1518 92.8708 24.2719L100.258 27.9001C100.388 27.9718 100.496 28.0689 100.573 28.1834C100.65 28.2979 100.694 28.4265 100.701 28.5585V28.5585Z" fill="url(#paint94_linear)"/>
<path d="M97.1395 41.0311C97.1395 41.2806 96.9038 41.3649 96.6129 41.2217L95.2512 40.5471C95.1046 40.4718 94.9806 40.3682 94.8892 40.2444C94.7977 40.1206 94.7414 39.9802 94.7246 39.8344V39.8344C94.7246 39.5849 94.9603 39.4994 95.2512 39.6426L96.6129 40.3184C96.7596 40.3935 96.8837 40.4971 96.9752 40.6209C97.0667 40.7447 97.123 40.8852 97.1395 41.0311V41.0311Z" fill="#E7F2F0"/>
<path style="mix-blend-mode:multiply" d="M122.164 83.56L122.149 83.4445C122.024 82.4418 121.244 81.5385 119.955 80.9032L102.405 72.2146C101.186 71.6116 99.5931 71.2812 97.9203 71.2812C96.2475 71.2812 94.6569 71.6116 93.4366 72.2169L72.9549 82.4337C71.666 83.0725 70.8875 83.977 70.7609 84.975L70.7461 85.0905L70.7609 85.206C70.7796 85.3457 70.8111 85.484 70.8552 85.6195L79.7876 134.107C79.8697 134.757 80.3761 135.342 81.2112 135.755L92.5989 141.395C93.3881 141.785 94.4198 142 95.5054 142C96.591 142 97.6227 141.785 98.416 141.394L111.697 134.766C112.534 134.354 113.044 133.769 113.122 133.117L122.057 84.0844C122.1 83.9511 122.131 83.8152 122.149 83.6778L122.164 83.56Z" fill="url(#paint95_linear)"/>
<path d="M112.055 132.754V126.297L111.453 126.331C111.318 126.232 111.172 126.145 111.018 126.069L99.6259 120.435C98.2413 119.748 95.9975 119.748 94.6129 120.435L81.3261 127.061C81.2165 127.117 81.1109 127.178 81.0096 127.244L80.2891 127.283V133.794C80.3133 134.228 80.6554 134.656 81.3221 134.988L92.7084 140.625C94.0917 141.308 96.3355 141.308 97.7201 140.625L111.007 133.998C111.665 133.672 112.008 133.248 112.039 132.821L112.055 132.754Z" fill="url(#paint96_linear)"/>
<path d="M111.011 127.535L97.7255 134.164C96.3382 134.849 94.089 134.849 92.7138 134.164L81.3261 128.521C80.5759 128.152 80.2351 127.655 80.2985 127.17C80.351 126.757 80.6917 126.361 81.3261 126.04L94.6142 119.413C95.9975 118.729 98.24 118.729 99.6259 119.413L111.011 125.049C111.644 125.364 111.986 125.766 112.037 126.179C112.102 126.673 111.76 127.164 111.011 127.535Z" fill="white"/>
<path d="M112.036 126.183C111.984 126.591 111.642 126.991 111.009 127.309L97.7239 133.938C96.3366 134.623 94.0874 134.623 92.7122 133.938L81.3245 128.3C80.6902 127.987 80.3494 127.583 80.2969 127.174C80.3494 126.761 80.6902 126.365 81.3245 126.044L94.6126 119.417C95.9959 118.733 98.2384 118.733 99.6243 119.417L111.009 125.053C111.649 125.368 111.984 125.77 112.036 126.183Z" fill="url(#paint97_linear)"/>
<path d="M106.916 133.571L97.0156 138.473V136.587L106.916 131.686V133.571Z" fill="url(#paint98_linear)"/>
<path d="M110.625 130.779C110.625 131.306 110.128 131.977 109.515 132.281C108.903 132.585 108.404 132.404 108.404 131.878C108.404 131.352 108.903 130.679 109.515 130.376C110.128 130.074 110.625 130.254 110.625 130.779Z" fill="#A177FF"/>
<path d="M84.3089 135.042L83.6152 134.699V131.088L84.3089 131.431V135.042Z" fill="url(#paint99_linear)"/>
<path d="M85.6331 135.71L84.9395 135.367V131.755L85.6331 132.099V135.71Z" fill="url(#paint100_linear)"/>
<path d="M86.9475 136.379L86.2539 136.036V132.424L86.9475 132.767V136.379Z" fill="url(#paint101_linear)"/>
<path d="M88.2685 137.046L87.5762 136.704V133.093L88.2685 133.436V137.046Z" fill="url(#paint102_linear)"/>
<path d="M89.5882 137.715L88.8945 137.372V133.76L89.5882 134.104V137.715Z" fill="url(#paint103_linear)"/>
<path style="mix-blend-mode:multiply" d="M112.038 126.181C111.988 126.591 111.646 126.99 111.011 127.309L99.563 133.024H95.0645V119.229C96.4463 118.737 98.3845 118.8 99.6276 119.415L111.011 125.051C111.651 125.366 111.988 125.769 112.038 126.181Z" fill="url(#paint104_linear)"/>
<path d="M112.054 124.708V118.253L111.452 118.285C111.316 118.187 111.17 118.1 111.017 118.024L99.6318 112.386C98.2472 111.701 96.0033 111.701 94.6188 112.386L81.332 119.013C81.2224 119.068 81.1167 119.13 81.0155 119.196L80.2949 119.236V125.748C80.3192 126.18 80.6613 126.609 81.328 126.941L92.7143 132.578C94.0975 133.262 96.3414 133.262 97.726 132.578L111.013 125.95C111.671 125.624 112.013 125.201 112.044 124.774L112.054 124.708Z" fill="url(#paint105_linear)"/>
<path d="M111.011 119.491L97.7255 126.12C96.3382 126.804 94.089 126.804 92.7138 126.12L81.3261 120.481C80.5759 120.111 80.2351 119.615 80.2985 119.128C80.351 118.716 80.6917 118.32 81.3261 118L94.6142 111.373C95.9975 110.688 98.24 110.688 99.6259 111.373L111.011 117.009C111.644 117.323 111.986 117.726 112.037 118.139C112.102 118.624 111.76 119.12 111.011 119.491Z" fill="white"/>
<path d="M112.036 118.139C111.984 118.547 111.642 118.947 111.009 119.265L97.7239 125.894C96.3366 126.579 94.0874 126.579 92.7122 125.894L81.3245 120.255C80.6902 119.942 80.3494 119.537 80.2969 119.128C80.3494 118.716 80.6902 118.32 81.3245 118L94.6126 111.373C95.9959 110.688 98.2384 110.688 99.6243 111.373L111.009 117.009C111.649 117.323 111.984 117.726 112.036 118.139Z" fill="url(#paint106_linear)"/>
<path d="M106.916 125.526L97.0156 130.428V128.543L106.916 123.641V125.526Z" fill="url(#paint107_linear)"/>
<path d="M110.625 122.735C110.625 123.262 110.128 123.934 109.515 124.237C108.903 124.539 108.404 124.36 108.404 123.834C108.404 123.307 108.903 122.636 109.515 122.332C110.128 122.028 110.625 122.209 110.625 122.735Z" fill="#A177FF"/>
<path d="M84.3089 126.998L83.6152 126.655V123.044L84.3089 123.388V126.998Z" fill="url(#paint108_linear)"/>
<path d="M85.6331 127.666L84.9395 127.324V123.712L85.6331 124.055V127.666Z" fill="url(#paint109_linear)"/>
<path d="M86.9475 128.335L86.2539 127.993V124.38L86.9475 124.723V128.335Z" fill="url(#paint110_linear)"/>
<path d="M88.2685 129.003L87.5762 128.661V125.049L88.2685 125.393V129.003Z" fill="url(#paint111_linear)"/>
<path d="M89.5882 129.672L88.8945 129.329V125.718L89.5882 126.061V129.672Z" fill="url(#paint112_linear)"/>
<path style="mix-blend-mode:multiply" d="M112.038 118.138C111.988 118.547 111.646 118.947 111.011 119.266L99.563 124.981H95.0645V111.185C96.4463 110.694 98.3845 110.757 99.6276 111.372L111.011 117.009C111.651 117.323 111.988 117.726 112.038 118.138Z" fill="url(#paint113_linear)"/>
<path d="M112.054 116.667V110.211L111.452 110.244C111.316 110.146 111.171 110.058 111.017 109.983L99.6318 104.345C98.2472 103.659 96.0033 103.659 94.6188 104.345L81.332 110.971C81.2221 111.027 81.1164 111.087 81.0155 111.154L80.2949 111.194V117.705C80.3192 118.138 80.6613 118.566 81.328 118.898L92.7143 124.535C94.0975 125.22 96.3414 125.22 97.726 124.535L111.013 117.908C111.671 117.581 112.013 117.157 112.044 116.731L112.054 116.667Z" fill="url(#paint114_linear)"/>
<path d="M111.011 111.447L97.7255 118.076C96.3382 118.761 94.089 118.761 92.7138 118.076L81.3261 112.437C80.5759 112.069 80.2351 111.571 80.2985 111.085C80.351 110.673 80.6917 110.276 81.3261 109.956L94.6142 103.329C95.9975 102.644 98.24 102.644 99.6259 103.329L111.011 108.966C111.644 109.28 111.986 109.682 112.037 110.095C112.102 110.581 111.76 111.079 111.011 111.447Z" fill="white"/>
<path d="M112.036 110.095C111.984 110.503 111.642 110.903 111.009 111.221L97.7239 117.85C96.3366 118.535 94.0874 118.535 92.7122 117.85L81.3245 112.211C80.6902 111.899 80.3494 111.495 80.2969 111.085C80.3494 110.673 80.6902 110.276 81.3245 109.956L94.6126 103.329C95.9959 102.644 98.2384 102.644 99.6243 103.329L111.009 108.966C111.649 109.28 111.984 109.682 112.036 110.095Z" fill="url(#paint115_linear)"/>
<path d="M106.916 117.483L97.0156 122.385V120.499L106.916 115.598V117.483Z" fill="url(#paint116_linear)"/>
<path d="M110.625 114.692C110.625 115.219 110.128 115.89 109.515 116.194C108.903 116.498 108.404 116.317 108.404 115.792C108.404 115.266 108.903 114.594 109.515 114.29C110.128 113.986 110.625 114.167 110.625 114.692Z" fill="#A177FF"/>
<path d="M84.3089 118.954L83.6152 118.611V115L84.3089 115.343V118.954Z" fill="url(#paint117_linear)"/>
<path d="M85.6331 119.624L84.9395 119.281V115.669L85.6331 116.013V119.624Z" fill="url(#paint118_linear)"/>
<path d="M86.9475 120.291L86.2539 119.947V116.336L86.9475 116.679V120.291Z" fill="url(#paint119_linear)"/>
<path d="M88.2685 120.959L87.5762 120.617V117.006L88.2685 117.349V120.959Z" fill="url(#paint120_linear)"/>
<path d="M89.5882 121.627L88.8945 121.285V117.673L89.5882 118.017V121.627Z" fill="url(#paint121_linear)"/>
<path style="mix-blend-mode:multiply" d="M107.082 110.294V112.43L103.803 114.065H95.6406V110.294H107.082Z" fill="url(#paint122_linear)"/>
<path d="M98.8045 112.426V112.224L98.6698 112.285L94.1808 110.061C94.1049 110.028 94.0209 110.011 93.9356 110.011C93.8504 110.011 93.7664 110.028 93.6905 110.061L90.6264 111.579L90.6008 111.531L90.5254 111.472V111.711C90.529 111.736 90.54 111.759 90.5572 111.779C90.5744 111.8 90.5973 111.816 90.6237 111.826L95.1505 114.067C95.226 114.101 95.3099 114.118 95.395 114.118C95.4801 114.118 95.5639 114.101 95.6394 114.067L98.7049 112.551C98.7317 112.54 98.7551 112.524 98.7728 112.504C98.7904 112.484 98.8018 112.46 98.8059 112.435V112.435L98.8045 112.426Z" fill="#89ADA6"/>
<path d="M95.1473 113.851L90.6205 111.61C90.5911 111.601 90.5655 111.585 90.5474 111.563C90.5293 111.541 90.5195 111.515 90.5195 111.489C90.5195 111.462 90.5293 111.436 90.5474 111.414C90.5655 111.392 90.5911 111.376 90.6205 111.367L93.686 109.849C93.7619 109.816 93.8459 109.799 93.9311 109.799C94.0164 109.799 94.1004 109.816 94.1763 109.849L98.7017 112.09C98.8364 112.158 98.8364 112.266 98.7017 112.333L95.6362 113.851C95.5605 113.884 95.4768 113.901 95.3918 113.901C95.3068 113.901 95.2231 113.884 95.1473 113.851Z" fill="url(#paint123_linear)"/>
<path d="M96.2676 109.09L94.0197 107.968C93.999 107.955 93.9746 107.947 93.9491 107.944C93.9236 107.942 93.8978 107.945 93.8742 107.954V107.954L93.4082 108.185C93.4743 108.272 93.55 108.354 93.6345 108.429C93.6587 108.429 93.753 108.46 93.8136 108.475V110.981C93.8175 111.044 93.8384 111.104 93.8746 111.159C93.9109 111.213 93.9615 111.259 94.0224 111.293L95.908 112.236L95.8743 112.373L95.9443 112.664L96.4144 112.433C96.4349 112.42 96.451 112.402 96.4612 112.382C96.4713 112.362 96.4752 112.34 96.4723 112.318V109.406C96.4695 109.343 96.4495 109.282 96.414 109.227C96.3784 109.172 96.3282 109.126 96.2676 109.09Z" fill="#89ADA6"/>
<path d="M95.7985 112.652L93.5519 111.53C93.4908 111.496 93.4399 111.45 93.4034 111.395C93.3669 111.341 93.3458 111.28 93.3418 111.217V108.307C93.3418 108.191 93.4347 108.144 93.5519 108.201L95.7985 109.323C95.8591 109.358 95.9094 109.404 95.9457 109.459C95.9819 109.513 96.0029 109.574 96.0072 109.636V112.548C96.0072 112.664 95.9129 112.71 95.7985 112.652Z" fill="url(#paint124_linear)"/>
<path d="M103.671 102.4L88.1011 94.6896C88.0458 94.6543 87.9797 94.6335 87.9109 94.6296C87.8421 94.6257 87.7735 94.6389 87.7132 94.6676V94.6676L87.332 94.8663C87.332 94.8663 87.3644 95.2694 87.4506 95.3642C87.4666 95.3787 87.486 95.3902 87.5076 95.3978C87.5292 95.4054 87.5525 95.4089 87.5758 95.4081V105.839C87.5858 105.995 87.6385 106.147 87.7298 106.282C87.8211 106.418 87.9483 106.533 88.1011 106.618L103.101 114.046L103.453 114.444L103.676 114.553L104.005 114.375C104.07 114.347 104.123 114.302 104.158 114.247C104.192 114.192 104.205 114.129 104.196 114.068V103.178C104.186 103.022 104.133 102.87 104.042 102.735C103.951 102.6 103.824 102.485 103.671 102.4V102.4Z" fill="url(#paint125_linear)"/>
<path d="M103.388 114.474L87.813 106.764C87.6604 106.678 87.5335 106.563 87.4425 106.428C87.3514 106.292 87.2989 106.14 87.2891 105.984V95.0963C87.2891 94.8086 87.5234 94.692 87.813 94.8364L103.383 102.546C103.536 102.631 103.663 102.746 103.754 102.882C103.846 103.018 103.898 103.17 103.908 103.326V114.214C103.913 114.502 103.679 114.617 103.388 114.474Z" fill="white"/>
<path d="M103.3 114.521L87.7304 106.812C87.5771 106.727 87.4497 106.612 87.3584 106.476C87.2671 106.34 87.2145 106.188 87.2051 106.031V95.1387C87.2051 94.8511 87.4394 94.7356 87.7304 94.8788L103.3 102.588C103.453 102.674 103.58 102.789 103.671 102.925C103.763 103.06 103.815 103.212 103.825 103.369V114.257C103.823 114.544 103.587 114.66 103.3 114.521Z" fill="url(#paint126_linear)"/>
<path d="M102.999 103.606V113.309C103.003 113.373 102.985 113.437 102.948 113.494C102.936 113.512 102.921 113.528 102.904 113.542C102.85 113.578 102.785 113.597 102.717 113.597C102.65 113.597 102.584 113.578 102.531 113.542L88.2539 106.496C88.1174 106.421 88.0037 106.318 87.9222 106.198C87.8408 106.077 87.7938 105.942 87.7852 105.803V96.1001C87.7852 95.9477 87.8592 95.8483 87.9724 95.8206C87.9956 95.815 88.0196 95.8123 88.0438 95.8125V95.8125C88.1176 95.8149 88.1896 95.8336 88.2525 95.8668L102.529 102.913C102.665 102.989 102.779 103.091 102.861 103.211C102.942 103.332 102.99 103.467 102.999 103.606V103.606Z" fill="url(#paint127_linear)"/>
<path d="M103 103.606V113.309C103.003 113.373 102.986 113.437 102.949 113.493C102.937 113.512 102.922 113.528 102.904 113.542C102.857 113.55 102.808 113.55 102.76 113.542C102.713 113.534 102.667 113.518 102.627 113.495L88.3503 106.449C88.2144 106.372 88.1012 106.27 88.0198 106.15C87.9384 106.029 87.8911 105.894 87.8816 105.755V96.0526C87.8785 96.0107 87.8851 95.9687 87.901 95.9291C87.917 95.8894 87.942 95.8529 87.9746 95.8216C87.9978 95.816 88.0218 95.8133 88.0459 95.8135V95.8135C88.1198 95.8158 88.1917 95.8345 88.2547 95.8678L102.531 102.914C102.667 102.99 102.78 103.092 102.862 103.212C102.943 103.332 102.991 103.467 103 103.606V103.606Z" fill="url(#paint128_linear)"/>
<defs>
<linearGradient id="paint0_linear" x1="100.013" y1="70.6541" x2="98.5363" y2="8.33073" gradientUnits="userSpaceOnUse">
<stop stop-color="#8D65E5"/>
<stop offset="1" stop-color="white"/>
</linearGradient>
<linearGradient id="paint1_linear" x1="77258" y1="92193.3" x2="75809.5" y2="54070.1" gradientUnits="userSpaceOnUse">
<stop stop-color="#FFD249"/>
<stop offset="1" stop-color="white"/>
</linearGradient>
<linearGradient id="paint2_linear" x1="23069.5" y1="92527.9" x2="21621.4" y2="54408.5" gradientUnits="userSpaceOnUse">
<stop stop-color="#FFD249"/>
<stop offset="1" stop-color="white"/>
</linearGradient>
<linearGradient id="paint3_linear" x1="24.6055" y1="96.6905" x2="62.0495" y2="96.6905" gradientUnits="userSpaceOnUse">
<stop stop-color="#D1D3D4"/>
<stop offset="0.14" stop-color="#DEDFE0"/>
<stop offset="0.41" stop-color="#F0F1F1"/>
<stop offset="0.69" stop-color="#FBFCFC"/>
<stop offset="1" stop-color="white"/>
</linearGradient>
<linearGradient id="paint4_linear" x1="9.82668" y1="95.2211" x2="41.587" y2="95.2211" gradientUnits="userSpaceOnUse">
<stop stop-color="#D2E9E6"/>
<stop offset="0.71" stop-color="#A6D3D1"/>
<stop offset="1" stop-color="#A6D3D1"/>
</linearGradient>
<linearGradient id="paint5_linear" x1="9.83594" y1="91.3721" x2="41.5747" y2="91.3721" gradientUnits="userSpaceOnUse">
<stop stop-color="#A6D3D1"/>
<stop offset="0.29" stop-color="#A6D3D1"/>
<stop offset="1" stop-color="#D2E9E6"/>
</linearGradient>
<linearGradient id="paint6_linear" x1="26.5566" y1="102.09" x2="36.4561" y2="102.09" gradientUnits="userSpaceOnUse">
<stop stop-color="#2CA2A0"/>
<stop offset="1" stop-color="#18898E"/>
</linearGradient>
<linearGradient id="paint7_linear" x1="217.318" y1="9094.09" x2="220.891" y2="9094.09" gradientUnits="userSpaceOnUse">
<stop stop-color="#2CA2A0"/>
<stop offset="1" stop-color="#18898E"/>
</linearGradient>
<linearGradient id="paint8_linear" x1="225.426" y1="9099.35" x2="228.998" y2="9099.35" gradientUnits="userSpaceOnUse">
<stop stop-color="#2CA2A0"/>
<stop offset="1" stop-color="#18898E"/>
</linearGradient>
<linearGradient id="paint9_linear" x1="234.024" y1="9110.05" x2="237.611" y2="9110.05" gradientUnits="userSpaceOnUse">
<stop stop-color="#2CA2A0"/>
<stop offset="1" stop-color="#18898E"/>
</linearGradient>
<linearGradient id="paint10_linear" x1="241.653" y1="9109.75" x2="245.225" y2="9109.75" gradientUnits="userSpaceOnUse">
<stop stop-color="#2CA2A0"/>
<stop offset="1" stop-color="#18898E"/>
</linearGradient>
<linearGradient id="paint11_linear" x1="249.251" y1="9114.75" x2="252.816" y2="9114.75" gradientUnits="userSpaceOnUse">
<stop stop-color="#2CA2A0"/>
<stop offset="1" stop-color="#18898E"/>
</linearGradient>
<linearGradient id="paint12_linear" x1="7267.2" y1="16609.6" x2="9406.16" y2="16609.6" gradientUnits="userSpaceOnUse">
<stop stop-color="#D1D3D4"/>
<stop offset="0.14" stop-color="#DEDFE0"/>
<stop offset="0.41" stop-color="#F0F1F1"/>
<stop offset="0.69" stop-color="#FBFCFC"/>
<stop offset="1" stop-color="white"/>
</linearGradient>
<linearGradient id="paint13_linear" x1="10078" y1="24274.1" x2="17567.5" y2="24274.1" gradientUnits="userSpaceOnUse">
<stop stop-color="#D2E9E6"/>
<stop offset="0.71" stop-color="#A6D3D1"/>
<stop offset="1" stop-color="#A6D3D1"/>
</linearGradient>
<linearGradient id="paint14_linear" x1="10073.6" y1="17284.2" x2="17552.8" y2="17284.2" gradientUnits="userSpaceOnUse">
<stop stop-color="#A6D3D1"/>
<stop offset="0.29" stop-color="#A6D3D1"/>
<stop offset="1" stop-color="#D2E9E6"/>
</linearGradient>
<linearGradient id="paint15_linear" x1="4394.18" y1="1544.23" x2="5121.79" y2="1544.23" gradientUnits="userSpaceOnUse">
<stop stop-color="#2CA2A0"/>
<stop offset="1" stop-color="#18898E"/>
</linearGradient>
<linearGradient id="paint16_linear" x1="217.318" y1="8810.7" x2="220.891" y2="8810.7" gradientUnits="userSpaceOnUse">
<stop stop-color="#2CA2A0"/>
<stop offset="1" stop-color="#18898E"/>
</linearGradient>
<linearGradient id="paint17_linear" x1="225.426" y1="8815.93" x2="228.998" y2="8815.93" gradientUnits="userSpaceOnUse">
<stop stop-color="#2CA2A0"/>
<stop offset="1" stop-color="#18898E"/>
</linearGradient>
<linearGradient id="paint18_linear" x1="234.024" y1="8823.98" x2="237.611" y2="8823.98" gradientUnits="userSpaceOnUse">
<stop stop-color="#2CA2A0"/>
<stop offset="1" stop-color="#18898E"/>
</linearGradient>
<linearGradient id="paint19_linear" x1="241.653" y1="8826.39" x2="245.225" y2="8826.39" gradientUnits="userSpaceOnUse">
<stop stop-color="#2CA2A0"/>
<stop offset="1" stop-color="#18898E"/>
</linearGradient>
<linearGradient id="paint20_linear" x1="249.251" y1="8831.35" x2="252.816" y2="8831.35" gradientUnits="userSpaceOnUse">
<stop stop-color="#2CA2A0"/>
<stop offset="1" stop-color="#18898E"/>
</linearGradient>
<linearGradient id="paint21_linear" x1="7267.2" y1="15618.4" x2="9406.16" y2="15618.4" gradientUnits="userSpaceOnUse">
<stop stop-color="#D1D3D4"/>
<stop offset="0.14" stop-color="#DEDFE0"/>
<stop offset="0.41" stop-color="#F0F1F1"/>
<stop offset="0.69" stop-color="#FBFCFC"/>
<stop offset="1" stop-color="white"/>
</linearGradient>
<linearGradient id="paint22_linear" x1="10078" y1="22780.5" x2="17567.5" y2="22780.5" gradientUnits="userSpaceOnUse">
<stop stop-color="#D2E9E6"/>
<stop offset="0.71" stop-color="#A6D3D1"/>
<stop offset="1" stop-color="#A6D3D1"/>
</linearGradient>
<linearGradient id="paint23_linear" x1="10073.6" y1="16192.9" x2="17552.8" y2="16192.9" gradientUnits="userSpaceOnUse">
<stop stop-color="#A6D3D1"/>
<stop offset="0.29" stop-color="#A6D3D1"/>
<stop offset="1" stop-color="#D2E9E6"/>
</linearGradient>
<linearGradient id="paint24_linear" x1="4394.18" y1="1063.68" x2="5121.79" y2="1063.68" gradientUnits="userSpaceOnUse">
<stop stop-color="#2CA2A0"/>
<stop offset="1" stop-color="#18898E"/>
</linearGradient>
<linearGradient id="paint25_linear" x1="217.318" y1="8529.87" x2="220.891" y2="8529.87" gradientUnits="userSpaceOnUse">
<stop stop-color="#2CA2A0"/>
<stop offset="1" stop-color="#18898E"/>
</linearGradient>
<linearGradient id="paint26_linear" x1="225.426" y1="8532.57" x2="228.998" y2="8532.57" gradientUnits="userSpaceOnUse">
<stop stop-color="#2CA2A0"/>
<stop offset="1" stop-color="#18898E"/>
</linearGradient>
<linearGradient id="paint27_linear" x1="234.024" y1="8538.02" x2="237.611" y2="8538.02" gradientUnits="userSpaceOnUse">
<stop stop-color="#2CA2A0"/>
<stop offset="1" stop-color="#18898E"/>
</linearGradient>
<linearGradient id="paint28_linear" x1="241.653" y1="8540.58" x2="245.225" y2="8540.58" gradientUnits="userSpaceOnUse">
<stop stop-color="#2CA2A0"/>
<stop offset="1" stop-color="#18898E"/>
</linearGradient>
<linearGradient id="paint29_linear" x1="249.251" y1="8550.46" x2="252.816" y2="8550.46" gradientUnits="userSpaceOnUse">
<stop stop-color="#2CA2A0"/>
<stop offset="1" stop-color="#18898E"/>
</linearGradient>
<linearGradient id="paint30_linear" x1="27034" y1="19228.5" x2="34523.5" y2="19228.5" gradientUnits="userSpaceOnUse">
<stop stop-color="#D2E9E6"/>
<stop offset="0.71" stop-color="#A6D3D1"/>
<stop offset="1" stop-color="#A6D3D1"/>
</linearGradient>
<linearGradient id="paint31_linear" x1="27016.6" y1="13581" x2="34495.2" y2="13581" gradientUnits="userSpaceOnUse">
<stop stop-color="#A6D3D1"/>
<stop offset="0.29" stop-color="#A6D3D1"/>
<stop offset="1" stop-color="#D2E9E6"/>
</linearGradient>
<linearGradient id="paint32_linear" x1="9728.4" y1="1995.84" x2="10456" y2="1995.84" gradientUnits="userSpaceOnUse">
<stop stop-color="#2CA2A0"/>
<stop offset="1" stop-color="#18898E"/>
</linearGradient>
<linearGradient id="paint33_linear" x1="657.661" y1="6854.15" x2="661.226" y2="6854.15" gradientUnits="userSpaceOnUse">
<stop stop-color="#2CA2A0"/>
<stop offset="1" stop-color="#18898E"/>
</linearGradient>
<linearGradient id="paint34_linear" x1="665.765" y1="6857.44" x2="669.337" y2="6857.44" gradientUnits="userSpaceOnUse">
<stop stop-color="#2CA2A0"/>
<stop offset="1" stop-color="#18898E"/>
</linearGradient>
<linearGradient id="paint35_linear" x1="673.879" y1="6864.59" x2="677.451" y2="6864.59" gradientUnits="userSpaceOnUse">
<stop stop-color="#2CA2A0"/>
<stop offset="1" stop-color="#18898E"/>
</linearGradient>
<linearGradient id="paint36_linear" x1="682.002" y1="6869.81" x2="685.574" y2="6869.81" gradientUnits="userSpaceOnUse">
<stop stop-color="#2CA2A0"/>
<stop offset="1" stop-color="#18898E"/>
</linearGradient>
<linearGradient id="paint37_linear" x1="690.111" y1="6875.02" x2="693.683" y2="6875.02" gradientUnits="userSpaceOnUse">
<stop stop-color="#2CA2A0"/>
<stop offset="1" stop-color="#18898E"/>
</linearGradient>
<linearGradient id="paint38_linear" x1="16360.6" y1="12252.9" x2="18499.2" y2="12252.9" gradientUnits="userSpaceOnUse">
<stop stop-color="#D1D3D4"/>
<stop offset="0.14" stop-color="#DEDFE0"/>
<stop offset="0.41" stop-color="#F0F1F1"/>
<stop offset="0.69" stop-color="#FBFCFC"/>
<stop offset="1" stop-color="white"/>
</linearGradient>
<linearGradient id="paint39_linear" x1="27034" y1="17734.7" x2="34523.5" y2="17734.7" gradientUnits="userSpaceOnUse">
<stop stop-color="#D2E9E6"/>
<stop offset="0.71" stop-color="#A6D3D1"/>
<stop offset="1" stop-color="#A6D3D1"/>
</linearGradient>
<linearGradient id="paint40_linear" x1="27016.6" y1="12490.1" x2="34495.2" y2="12490.1" gradientUnits="userSpaceOnUse">
<stop stop-color="#A6D3D1"/>
<stop offset="0.29" stop-color="#A6D3D1"/>
<stop offset="1" stop-color="#D2E9E6"/>
</linearGradient>
<linearGradient id="paint41_linear" x1="9728.4" y1="1515.19" x2="10456" y2="1515.19" gradientUnits="userSpaceOnUse">
<stop stop-color="#2CA2A0"/>
<stop offset="1" stop-color="#18898E"/>
</linearGradient>
<linearGradient id="paint42_linear" x1="657.661" y1="6570.77" x2="661.226" y2="6570.77" gradientUnits="userSpaceOnUse">
<stop stop-color="#2CA2A0"/>
<stop offset="1" stop-color="#18898E"/>
</linearGradient>
<linearGradient id="paint43_linear" x1="665.765" y1="6577.9" x2="669.337" y2="6577.9" gradientUnits="userSpaceOnUse">
<stop stop-color="#2CA2A0"/>
<stop offset="1" stop-color="#18898E"/>
</linearGradient>
<linearGradient id="paint44_linear" x1="673.879" y1="6583.09" x2="677.451" y2="6583.09" gradientUnits="userSpaceOnUse">
<stop stop-color="#2CA2A0"/>
<stop offset="1" stop-color="#18898E"/>
</linearGradient>
<linearGradient id="paint45_linear" x1="682.002" y1="6584.56" x2="685.574" y2="6584.56" gradientUnits="userSpaceOnUse">
<stop stop-color="#2CA2A0"/>
<stop offset="1" stop-color="#18898E"/>
</linearGradient>
<linearGradient id="paint46_linear" x1="690.111" y1="6591.67" x2="693.683" y2="6591.67" gradientUnits="userSpaceOnUse">
<stop stop-color="#2CA2A0"/>
<stop offset="1" stop-color="#18898E"/>
</linearGradient>
<linearGradient id="paint47_linear" x1="16360.6" y1="11262.1" x2="18499.2" y2="11262.1" gradientUnits="userSpaceOnUse">
<stop stop-color="#D1D3D4"/>
<stop offset="0.14" stop-color="#DEDFE0"/>
<stop offset="0.41" stop-color="#F0F1F1"/>
<stop offset="0.69" stop-color="#FBFCFC"/>
<stop offset="1" stop-color="white"/>
</linearGradient>
<linearGradient id="paint48_linear" x1="27030.5" y1="16257.3" x2="34519.1" y2="16257.3" gradientUnits="userSpaceOnUse">
<stop stop-color="#D2E9E6"/>
<stop offset="0.71" stop-color="#A6D3D1"/>
<stop offset="1" stop-color="#A6D3D1"/>
</linearGradient>
<linearGradient id="paint49_linear" x1="27016.6" y1="11403.3" x2="34495.2" y2="11403.3" gradientUnits="userSpaceOnUse">
<stop stop-color="#A6D3D1"/>
<stop offset="0.29" stop-color="#A6D3D1"/>
<stop offset="1" stop-color="#D2E9E6"/>
</linearGradient>
<linearGradient id="paint50_linear" x1="9728.4" y1="1034.47" x2="10456" y2="1034.47" gradientUnits="userSpaceOnUse">
<stop stop-color="#2CA2A0"/>
<stop offset="1" stop-color="#18898E"/>
</linearGradient>
<linearGradient id="paint51_linear" x1="657.661" y1="6289.15" x2="661.226" y2="6289.15" gradientUnits="userSpaceOnUse">
<stop stop-color="#2CA2A0"/>
<stop offset="1" stop-color="#18898E"/>
</linearGradient>
<linearGradient id="paint52_linear" x1="665.765" y1="6292.62" x2="669.337" y2="6292.62" gradientUnits="userSpaceOnUse">
<stop stop-color="#2CA2A0"/>
<stop offset="1" stop-color="#18898E"/>
</linearGradient>
<linearGradient id="paint53_linear" x1="673.879" y1="6299.62" x2="677.451" y2="6299.62" gradientUnits="userSpaceOnUse">
<stop stop-color="#2CA2A0"/>
<stop offset="1" stop-color="#18898E"/>
</linearGradient>
<linearGradient id="paint54_linear" x1="682.002" y1="6303.05" x2="685.574" y2="6303.05" gradientUnits="userSpaceOnUse">
<stop stop-color="#2CA2A0"/>
<stop offset="1" stop-color="#18898E"/>
</linearGradient>
<linearGradient id="paint55_linear" x1="690.111" y1="6308.28" x2="693.683" y2="6308.28" gradientUnits="userSpaceOnUse">
<stop stop-color="#2CA2A0"/>
<stop offset="1" stop-color="#18898E"/>
</linearGradient>
<linearGradient id="paint56_linear" x1="43598.6" y1="25633.3" x2="51086.6" y2="25633.3" gradientUnits="userSpaceOnUse">
<stop stop-color="#D2E9E6"/>
<stop offset="0.71" stop-color="#A6D3D1"/>
<stop offset="1" stop-color="#A6D3D1"/>
</linearGradient>
<linearGradient id="paint57_linear" x1="43580.2" y1="18286.8" x2="51059.4" y2="18286.8" gradientUnits="userSpaceOnUse">
<stop stop-color="#A6D3D1"/>
<stop offset="0.29" stop-color="#A6D3D1"/>
<stop offset="1" stop-color="#D2E9E6"/>
</linearGradient>
<linearGradient id="paint58_linear" x1="14942.4" y1="6106.23" x2="15670" y2="6106.23" gradientUnits="userSpaceOnUse">
<stop stop-color="#2CA2A0"/>
<stop offset="1" stop-color="#18898E"/>
</linearGradient>
<linearGradient id="paint59_linear" x1="1088.06" y1="7106.48" x2="1091.63" y2="7106.48" gradientUnits="userSpaceOnUse">
<stop stop-color="#2CA2A0"/>
<stop offset="1" stop-color="#18898E"/>
</linearGradient>
<linearGradient id="paint60_linear" x1="1098.09" y1="7110.71" x2="1101.66" y2="7110.71" gradientUnits="userSpaceOnUse">
<stop stop-color="#2CA2A0"/>
<stop offset="1" stop-color="#18898E"/>
</linearGradient>
<linearGradient id="paint61_linear" x1="1104.3" y1="7116.94" x2="1107.87" y2="7116.94" gradientUnits="userSpaceOnUse">
<stop stop-color="#2CA2A0"/>
<stop offset="1" stop-color="#18898E"/>
</linearGradient>
<linearGradient id="paint62_linear" x1="1110.51" y1="7119.24" x2="1114.07" y2="7119.24" gradientUnits="userSpaceOnUse">
<stop stop-color="#2CA2A0"/>
<stop offset="1" stop-color="#18898E"/>
</linearGradient>
<linearGradient id="paint63_linear" x1="1118.6" y1="7124.49" x2="1122.16" y2="7124.49" gradientUnits="userSpaceOnUse">
<stop stop-color="#2CA2A0"/>
<stop offset="1" stop-color="#18898E"/>
</linearGradient>
<linearGradient id="paint64_linear" x1="25247.6" y1="16530.6" x2="27386.2" y2="16530.6" gradientUnits="userSpaceOnUse">
<stop stop-color="#D1D3D4"/>
<stop offset="0.14" stop-color="#DEDFE0"/>
<stop offset="0.41" stop-color="#F0F1F1"/>
<stop offset="0.69" stop-color="#FBFCFC"/>
<stop offset="1" stop-color="white"/>
</linearGradient>
<linearGradient id="paint65_linear" x1="43598.6" y1="24146.6" x2="51086.5" y2="24146.6" gradientUnits="userSpaceOnUse">
<stop stop-color="#D2E9E6"/>
<stop offset="0.71" stop-color="#A6D3D1"/>
<stop offset="1" stop-color="#A6D3D1"/>
</linearGradient>
<linearGradient id="paint66_linear" x1="43585.7" y1="17194.9" x2="51065.9" y2="17194.9" gradientUnits="userSpaceOnUse">
<stop stop-color="#A6D3D1"/>
<stop offset="0.29" stop-color="#A6D3D1"/>
<stop offset="1" stop-color="#D2E9E6"/>
</linearGradient>
<linearGradient id="paint67_linear" x1="14942.4" y1="5626.44" x2="15670" y2="5626.44" gradientUnits="userSpaceOnUse">
<stop stop-color="#2CA2A0"/>
<stop offset="1" stop-color="#18898E"/>
</linearGradient>
<linearGradient id="paint68_linear" x1="1088.06" y1="6821.15" x2="1091.63" y2="6821.15" gradientUnits="userSpaceOnUse">
<stop stop-color="#2CA2A0"/>
<stop offset="1" stop-color="#18898E"/>
</linearGradient>
<linearGradient id="paint69_linear" x1="1098.09" y1="6829.2" x2="1101.66" y2="6829.2" gradientUnits="userSpaceOnUse">
<stop stop-color="#2CA2A0"/>
<stop offset="1" stop-color="#18898E"/>
</linearGradient>
<linearGradient id="paint70_linear" x1="1104.3" y1="6829.78" x2="1107.87" y2="6829.78" gradientUnits="userSpaceOnUse">
<stop stop-color="#2CA2A0"/>
<stop offset="1" stop-color="#18898E"/>
</linearGradient>
<linearGradient id="paint71_linear" x1="1110.51" y1="6834.04" x2="1114.07" y2="6834.04" gradientUnits="userSpaceOnUse">
<stop stop-color="#2CA2A0"/>
<stop offset="1" stop-color="#18898E"/>
</linearGradient>
<linearGradient id="paint72_linear" x1="1118.6" y1="6841.1" x2="1122.16" y2="6841.1" gradientUnits="userSpaceOnUse">
<stop stop-color="#2CA2A0"/>
<stop offset="1" stop-color="#18898E"/>
</linearGradient>
<linearGradient id="paint73_linear" x1="25247.6" y1="15539.9" x2="27386.2" y2="15539.9" gradientUnits="userSpaceOnUse">
<stop stop-color="#D1D3D4"/>
<stop offset="0.14" stop-color="#DEDFE0"/>
<stop offset="0.41" stop-color="#F0F1F1"/>
<stop offset="0.69" stop-color="#FBFCFC"/>
<stop offset="1" stop-color="white"/>
</linearGradient>
<linearGradient id="paint74_linear" x1="43598.6" y1="22660.3" x2="51086.5" y2="22660.3" gradientUnits="userSpaceOnUse">
<stop stop-color="#D2E9E6"/>
<stop offset="0.71" stop-color="#A6D3D1"/>
<stop offset="1" stop-color="#A6D3D1"/>
</linearGradient>
<linearGradient id="paint75_linear" x1="43580.2" y1="16105.3" x2="51059.4" y2="16105.3" gradientUnits="userSpaceOnUse">
<stop stop-color="#A6D3D1"/>
<stop offset="0.29" stop-color="#A6D3D1"/>
<stop offset="1" stop-color="#D2E9E6"/>
</linearGradient>
<linearGradient id="paint76_linear" x1="14942.4" y1="5144.86" x2="15670" y2="5144.86" gradientUnits="userSpaceOnUse">
<stop stop-color="#2CA2A0"/>
<stop offset="1" stop-color="#18898E"/>
</linearGradient>
<linearGradient id="paint77_linear" x1="1088.06" y1="6537.86" x2="1091.63" y2="6537.86" gradientUnits="userSpaceOnUse">
<stop stop-color="#2CA2A0"/>
<stop offset="1" stop-color="#18898E"/>
</linearGradient>
<linearGradient id="paint78_linear" x1="1098.09" y1="6545.74" x2="1101.66" y2="6545.74" gradientUnits="userSpaceOnUse">
<stop stop-color="#2CA2A0"/>
<stop offset="1" stop-color="#18898E"/>
</linearGradient>
<linearGradient id="paint79_linear" x1="1104.3" y1="6550.01" x2="1107.87" y2="6550.01" gradientUnits="userSpaceOnUse">
<stop stop-color="#2CA2A0"/>
<stop offset="1" stop-color="#18898E"/>
</linearGradient>
<linearGradient id="paint80_linear" x1="1110.51" y1="6552.53" x2="1114.07" y2="6552.53" gradientUnits="userSpaceOnUse">
<stop stop-color="#2CA2A0"/>
<stop offset="1" stop-color="#18898E"/>
</linearGradient>
<linearGradient id="paint81_linear" x1="1118.6" y1="6557.75" x2="1122.16" y2="6557.75" gradientUnits="userSpaceOnUse">
<stop stop-color="#2CA2A0"/>
<stop offset="1" stop-color="#18898E"/>
</linearGradient>
<linearGradient id="paint82_linear" x1="42921.3" y1="45480" x2="67337.2" y2="45480" gradientUnits="userSpaceOnUse">
<stop stop-color="#D2E9E6"/>
<stop offset="0.71" stop-color="#A6D3D1"/>
<stop offset="1" stop-color="#A6D3D1"/>
</linearGradient>
<linearGradient id="paint83_linear" x1="42901.2" y1="31654.4" x2="67284.9" y2="31654.4" gradientUnits="userSpaceOnUse">
<stop stop-color="#A6D3D1"/>
<stop offset="0.29" stop-color="#A6D3D1"/>
<stop offset="1" stop-color="#D2E9E6"/>
</linearGradient>
<linearGradient id="paint84_linear" x1="43861.9" y1="62781.9" x2="43861.9" y2="39067.2" gradientUnits="userSpaceOnUse">
<stop stop-color="#FFD249"/>
<stop offset="1" stop-color="white"/>
</linearGradient>
<linearGradient id="paint85_linear" x1="30369.4" y1="17420.7" x2="40414.4" y2="17420.7" gradientUnits="userSpaceOnUse">
<stop stop-color="#2CA2A0"/>
<stop offset="1" stop-color="#18898E"/>
</linearGradient>
<linearGradient id="paint86_linear" x1="83.1296" y1="69.7121" x2="106.548" y2="69.7121" gradientUnits="userSpaceOnUse">
<stop stop-color="white"/>
<stop offset="1" stop-color="#E6E7E8"/>
</linearGradient>
<linearGradient id="paint87_linear" x1="173.777" y1="71.9151" x2="159.053" y2="71.9151" gradientUnits="userSpaceOnUse">
<stop stop-color="#2CA2A0"/>
<stop offset="0.7" stop-color="#18898E"/>
<stop offset="1" stop-color="#2CA2A0"/>
</linearGradient>
<linearGradient id="paint88_linear" x1="173.776" y1="67.484" x2="159.047" y2="67.484" gradientUnits="userSpaceOnUse">
<stop stop-color="#2CA2A0"/>
<stop offset="0.7" stop-color="#18898E"/>
<stop offset="1" stop-color="#2CA2A0"/>
</linearGradient>
<linearGradient id="paint89_linear" x1="173.769" y1="66.4615" x2="159.051" y2="66.4615" gradientUnits="userSpaceOnUse">
<stop stop-color="#18898E"/>
<stop offset="1" stop-color="#2CA2A0"/>
</linearGradient>
<linearGradient id="paint90_linear" x1="166.019" y1="72.2889" x2="162.418" y2="72.2889" gradientUnits="userSpaceOnUse">
<stop stop-color="#249A98"/>
<stop offset="0.7" stop-color="#0F5D61"/>
<stop offset="1" stop-color="#2D8D8C"/>
</linearGradient>
<linearGradient id="paint91_linear" x1="20353.5" y1="3322.28" x2="21874.8" y2="3059.7" gradientUnits="userSpaceOnUse">
<stop stop-color="#D1D3D4"/>
<stop offset="0.14" stop-color="#DEDFE0"/>
<stop offset="0.41" stop-color="#F0F1F1"/>
<stop offset="0.69" stop-color="#FBFCFC"/>
<stop offset="1" stop-color="white"/>
</linearGradient>
<linearGradient id="paint92_linear" x1="92.1591" y1="33.1585" x2="101.623" y2="33.1585" gradientUnits="userSpaceOnUse">
<stop stop-color="#D2E9E6"/>
<stop offset="0.34" stop-color="#A6D3D1"/>
<stop offset="1" stop-color="#D2E9E6"/>
</linearGradient>
<linearGradient id="paint93_linear" x1="91.9561" y1="33.2959" x2="101.131" y2="33.2959" gradientUnits="userSpaceOnUse">
<stop stop-color="#D2E9E6"/>
<stop offset="0.66" stop-color="#A6D3D1"/>
<stop offset="1" stop-color="#D2E9E6"/>
</linearGradient>
<linearGradient id="paint94_linear" x1="7789.26" y1="11820.5" x2="8297.51" y2="11820.5" gradientUnits="userSpaceOnUse">
<stop stop-color="#2CA2A0"/>
<stop offset="1" stop-color="#18898E"/>
</linearGradient>
<linearGradient id="paint95_linear" x1="50149" y1="114218" x2="48700.8" y2="76095.1" gradientUnits="userSpaceOnUse">
<stop stop-color="#FFD249"/>
<stop offset="1" stop-color="white"/>
</linearGradient>
<linearGradient id="paint96_linear" x1="26768.2" y1="32272" x2="34258.6" y2="32272" gradientUnits="userSpaceOnUse">
<stop stop-color="#D2E9E6"/>
<stop offset="0.71" stop-color="#A6D3D1"/>
<stop offset="1" stop-color="#A6D3D1"/>
</linearGradient>
<linearGradient id="paint97_linear" x1="26747.8" y1="23160.7" x2="34227.1" y2="23160.7" gradientUnits="userSpaceOnUse">
<stop stop-color="#A6D3D1"/>
<stop offset="0.29" stop-color="#A6D3D1"/>
<stop offset="1" stop-color="#D2E9E6"/>
</linearGradient>
<linearGradient id="paint98_linear" x1="9644.71" y1="6185.01" x2="10372.4" y2="6185.01" gradientUnits="userSpaceOnUse">
<stop stop-color="#2CA2A0"/>
<stop offset="1" stop-color="#18898E"/>
</linearGradient>
<linearGradient id="paint99_linear" x1="650.638" y1="9359.14" x2="654.21" y2="9359.14" gradientUnits="userSpaceOnUse">
<stop stop-color="#2CA2A0"/>
<stop offset="1" stop-color="#18898E"/>
</linearGradient>
<linearGradient id="paint100_linear" x1="658.77" y1="9366.99" x2="662.342" y2="9366.99" gradientUnits="userSpaceOnUse">
<stop stop-color="#2CA2A0"/>
<stop offset="1" stop-color="#18898E"/>
</linearGradient>
<linearGradient id="paint101_linear" x1="666.87" y1="9372.21" x2="670.442" y2="9372.21" gradientUnits="userSpaceOnUse">
<stop stop-color="#2CA2A0"/>
<stop offset="1" stop-color="#18898E"/>
</linearGradient>
<linearGradient id="paint102_linear" x1="673.785" y1="9371.54" x2="677.344" y2="9371.54" gradientUnits="userSpaceOnUse">
<stop stop-color="#2CA2A0"/>
<stop offset="1" stop-color="#18898E"/>
</linearGradient>
<linearGradient id="paint103_linear" x1="683.094" y1="9382.69" x2="686.659" y2="9382.69" gradientUnits="userSpaceOnUse">
<stop stop-color="#2CA2A0"/>
<stop offset="1" stop-color="#18898E"/>
</linearGradient>
<linearGradient id="paint104_linear" x1="16217" y1="20961.9" x2="18355.9" y2="20961.9" gradientUnits="userSpaceOnUse">
<stop stop-color="#D1D3D4"/>
<stop offset="0.14" stop-color="#DEDFE0"/>
<stop offset="0.41" stop-color="#F0F1F1"/>
<stop offset="0.69" stop-color="#FBFCFC"/>
<stop offset="1" stop-color="white"/>
</linearGradient>
<linearGradient id="paint105_linear" x1="26762.6" y1="30788.7" x2="34251.3" y2="30788.7" gradientUnits="userSpaceOnUse">
<stop stop-color="#D2E9E6"/>
<stop offset="0.71" stop-color="#A6D3D1"/>
<stop offset="1" stop-color="#A6D3D1"/>
</linearGradient>
<linearGradient id="paint106_linear" x1="26747.8" y1="22071.2" x2="34227.1" y2="22071.2" gradientUnits="userSpaceOnUse">
<stop stop-color="#A6D3D1"/>
<stop offset="0.29" stop-color="#A6D3D1"/>
<stop offset="1" stop-color="#D2E9E6"/>
</linearGradient>
<linearGradient id="paint107_linear" x1="9644.71" y1="5704.29" x2="10372.4" y2="5704.29" gradientUnits="userSpaceOnUse">
<stop stop-color="#2CA2A0"/>
<stop offset="1" stop-color="#18898E"/>
</linearGradient>
<linearGradient id="paint108_linear" x1="650.638" y1="9075.72" x2="654.21" y2="9075.72" gradientUnits="userSpaceOnUse">
<stop stop-color="#2CA2A0"/>
<stop offset="1" stop-color="#18898E"/>
</linearGradient>
<linearGradient id="paint109_linear" x1="658.77" y1="9080.97" x2="662.342" y2="9080.97" gradientUnits="userSpaceOnUse">
<stop stop-color="#2CA2A0"/>
<stop offset="1" stop-color="#18898E"/>
</linearGradient>
<linearGradient id="paint110_linear" x1="666.87" y1="9088.73" x2="670.442" y2="9088.73" gradientUnits="userSpaceOnUse">
<stop stop-color="#2CA2A0"/>
<stop offset="1" stop-color="#18898E"/>
</linearGradient>
<linearGradient id="paint111_linear" x1="673.785" y1="9090.85" x2="677.344" y2="9090.85" gradientUnits="userSpaceOnUse">
<stop stop-color="#2CA2A0"/>
<stop offset="1" stop-color="#18898E"/>
</linearGradient>
<linearGradient id="paint112_linear" x1="683.094" y1="9096.66" x2="686.659" y2="9096.66" gradientUnits="userSpaceOnUse">
<stop stop-color="#2CA2A0"/>
<stop offset="1" stop-color="#18898E"/>
</linearGradient>
<linearGradient id="paint113_linear" x1="16217" y1="19970.8" x2="18355.9" y2="19970.8" gradientUnits="userSpaceOnUse">
<stop stop-color="#D1D3D4"/>
<stop offset="0.14" stop-color="#DEDFE0"/>
<stop offset="0.41" stop-color="#F0F1F1"/>
<stop offset="0.69" stop-color="#FBFCFC"/>
<stop offset="1" stop-color="white"/>
</linearGradient>
<linearGradient id="paint114_linear" x1="26762.6" y1="29302.2" x2="34251.3" y2="29302.2" gradientUnits="userSpaceOnUse">
<stop stop-color="#D2E9E6"/>
<stop offset="0.71" stop-color="#A6D3D1"/>
<stop offset="1" stop-color="#A6D3D1"/>
</linearGradient>
<linearGradient id="paint115_linear" x1="26747.8" y1="20980.5" x2="34227.1" y2="20980.5" gradientUnits="userSpaceOnUse">
<stop stop-color="#A6D3D1"/>
<stop offset="0.29" stop-color="#A6D3D1"/>
<stop offset="1" stop-color="#D2E9E6"/>
</linearGradient>
<linearGradient id="paint116_linear" x1="9644.71" y1="5223.64" x2="10372.4" y2="5223.64" gradientUnits="userSpaceOnUse">
<stop stop-color="#2CA2A0"/>
<stop offset="1" stop-color="#18898E"/>
</linearGradient>
<linearGradient id="paint117_linear" x1="650.638" y1="8792.37" x2="654.21" y2="8792.37" gradientUnits="userSpaceOnUse">
<stop stop-color="#2CA2A0"/>
<stop offset="1" stop-color="#18898E"/>
</linearGradient>
<linearGradient id="paint118_linear" x1="658.77" y1="8800.09" x2="662.342" y2="8800.09" gradientUnits="userSpaceOnUse">
<stop stop-color="#2CA2A0"/>
<stop offset="1" stop-color="#18898E"/>
</linearGradient>
<linearGradient id="paint119_linear" x1="666.87" y1="8805.37" x2="670.442" y2="8805.37" gradientUnits="userSpaceOnUse">
<stop stop-color="#2CA2A0"/>
<stop offset="1" stop-color="#18898E"/>
</linearGradient>
<linearGradient id="paint120_linear" x1="673.785" y1="8804.89" x2="677.344" y2="8804.89" gradientUnits="userSpaceOnUse">
<stop stop-color="#2CA2A0"/>
<stop offset="1" stop-color="#18898E"/>
</linearGradient>
<linearGradient id="paint121_linear" x1="683.094" y1="8813.26" x2="686.659" y2="8813.26" gradientUnits="userSpaceOnUse">
<stop stop-color="#2CA2A0"/>
<stop offset="1" stop-color="#18898E"/>
</linearGradient>
<linearGradient id="paint122_linear" x1="8220.2" y1="3772.96" x2="9192.16" y2="3772.96" gradientUnits="userSpaceOnUse">
<stop stop-color="#D1D3D4"/>
<stop offset="0.14" stop-color="#DEDFE0"/>
<stop offset="0.41" stop-color="#F0F1F1"/>
<stop offset="0.69" stop-color="#FBFCFC"/>
<stop offset="1" stop-color="white"/>
</linearGradient>
<linearGradient id="paint123_linear" x1="90.5195" y1="111.844" x2="98.8041" y2="111.844" gradientUnits="userSpaceOnUse">
<stop stop-color="#D2E9E6"/>
<stop offset="1" stop-color="#A6D3D1"/>
</linearGradient>
<linearGradient id="paint124_linear" x1="2591.03" y1="6144.46" x2="2643.78" y2="6144.46" gradientUnits="userSpaceOnUse">
<stop stop-color="#D2E9E6"/>
<stop offset="1" stop-color="#A6D3D1"/>
</linearGradient>
<linearGradient id="paint125_linear" x1="87.332" y1="104.59" x2="104.196" y2="104.59" gradientUnits="userSpaceOnUse">
<stop stop-color="#A6D3D1"/>
<stop offset="1" stop-color="#D2E9E6"/>
</linearGradient>
<linearGradient id="paint126_linear" x1="14903.8" y1="25623.7" x2="16954.8" y2="25623.7" gradientUnits="userSpaceOnUse">
<stop stop-color="#D2E9E6"/>
<stop offset="1" stop-color="#A6D3D1"/>
</linearGradient>
<linearGradient id="paint127_linear" x1="87.7905" y1="104.702" x2="102.999" y2="104.702" gradientUnits="userSpaceOnUse">
<stop stop-color="#BDBABE"/>
<stop offset="0.44" stop-color="#F1F2F2"/>
<stop offset="1" stop-color="white"/>
</linearGradient>
<linearGradient id="paint128_linear" x1="87.8857" y1="104.678" x2="103" y2="104.678" gradientUnits="userSpaceOnUse">
<stop stop-color="#2CA2A0"/>
<stop offset="0.7" stop-color="#18898E"/>
<stop offset="1" stop-color="#2CA2A0"/>
</linearGradient>
</defs>
</svg>
